<svg version="1" xmlns="http://www.w3.org/2000/svg" width="334.667" height="334.667" viewBox="0 0 251.000000 251.000000"><path d="M194 26.7c-3 1.5-8.3 4.9-11.7 7.5l-6.1 4.8-25.9-.1c-14.2 0-31.3.3-37.9.7-14.3.8-16.6.4-20.7-4-4.2-4.3-14-7.9-22.1-8-6.1-.1-17.6 2.9-17.6 4.5 0 .5-.6.9-1.2.9-1.7 0-7.8 5.3-7.8 6.7 0 .7-.6 1.6-1.3 2-3.9 2.4-8.2 19.3-6.2 24 1.7 3.9 1.1 8.7-1.7 14.5-1.5 3.2-2.8 6.6-2.8 7.6s-.3 2.2-.7 2.6c-.5.4-1.3 3.1-2 5.9-1.7 7.2-1 52.3.9 59.2 2.9 10.6 5.4 15.9 9.4 19.9 2.2 2.3 4.3 4.8 4.7 5.6.4.8 1.6 2.8 2.7 4.5 1.1 1.6 3.1 5.1 4.4 7.6 3 5.7 11.8 13.6 16.6 15 1.9.6 4.3 1.6 5.3 2.4 1.6 1.2 1.5 1.6-1.3 7-3 5.7-7.2 20-8.5 28.7l-.7 4.8h12l1.2-6.8c.6-3.7 2.2-9.9 3.5-13.7 1.3-3.9 2.6-8.1 2.9-9.5 1.1-5 1.6-5.1 10.2-3.4 8.9 1.7 35.7 1.4 39.2-.5 2.3-1.2 7.2-1.8 25.2-3.1 16.7-1.1 23.9-1.8 24.8-2.4.4-.3 2.1 3.4 3.7 8.2 1.7 4.8 3.3 8.9 3.6 9.2.3.3.9 1.8 1.3 3.5.4 1.6 2.1 6.5 3.8 10.8l3.1 7.7h5.3c5 0 6.8-1 4.4-2.5-.5-.3-.7-1.2-.4-1.9.3-.8.1-1.7-.5-2.1-.6-.3-1.1-1.5-1.1-2.6 0-1-.4-2.7-.9-3.7-2.3-4.2-4.1-8.6-4.1-10 0-.9-.8-3.4-1.9-5.6-2-4.4-5.4-14.7-4.9-15 .2-.1 1.4-.7 2.8-1.2 7.8-3.4 11.9-5.6 13-6.9.7-.8 1.9-1.5 2.8-1.5.9 0 3.7-1.8 6.3-3.9 2.5-2.2 5.8-4.3 7.3-4.7 2.2-.5 4.8-3 9.5-9 2.2-2.8 5.1-10.6 6.2-16.9 2.3-13.6.2-31-6.6-54.3l-2.7-9.3 5.1-5c2.8-2.7 6.3-7.5 7.8-10.6 1.5-3.2 3.3-6.4 4-7.1 3-3.2 3.7-22.9 1-28.3-3.1-6.1-8.2-12.2-11.7-14.2-1.9-1-4.6-2.9-6-4.2-1.4-1.2-3.6-2.6-5-3-1.4-.4-3.1-1.2-3.7-1.7-.7-.6-6.1-1.2-12-1.5-10.3-.4-11.1-.3-16.3 2.4zm28.3 11.7c2.1.9 5.2 3 7 4.7 1.7 1.7 3.6 3.4 4.2 3.7 2.1 1.4 4.6 6.4 5.5 11 1.5 7.8-1.1 16.8-6.9 23.9-2.6 3.3-5.1 5.8-5.6 5.7-.6-.1-2.5 1.5-4.4 3.7-3.2 3.8-3.3 4-1.7 6.4.9 1.3 1.6 3.5 1.6 4.8 0 1.3.3 2.7.7 3.1 1.2 1.1 3.3 8 3.3 10.7 0 1.4.7 3.4 1.5 4.5.8 1 1.5 3 1.5 4.4 0 1.4.9 5.7 1.9 9.5 2.5 9.1 2.5 23.5.1 30.8-3.9 11.3-5.8 14.5-10 16.3-2.2 1-4 2.1-4 2.6 0 .4-.6.8-1.3.8-.7 0-3.5 1.5-6.2 3.4-2.8 1.8-6 3.6-7.2 4-1.3.4-2.3 1.2-2.3 1.7s-.7.9-1.5.9-1.5.7-1.5 1.5c0 .9-.9 1.5-2.4 1.5-1.4 0-3.2.8-4.1 1.7-1 .9-4.7 2.2-8.4 2.9-9.7 1.9-11.3 1.6-5.6-1 2.8-1.3 6.1-3.6 7.4-5 1.4-1.4 3-2.6 3.6-2.6 1.6 0 7.2-8 8.1-11.6.4-1.6 1.1-3.2 1.6-3.5 1.6-1.1 3.7-18.2 3.3-26.9-.5-10.2-1.4-17.1-2.5-18.5-.5-.6-1.2-3.5-1.5-6.5-.7-5.6-8.8-24-10.6-24-.5 0-.9-.4-.9-.9 0-1.3-5.3-7.1-6.5-7.1-.5 0-1.9-1.3-3-2.9-1.9-2.9-13.5-10.4-20.5-13.4-14.3-6-33.3-6-46 0-2.5 1.2-7 2.9-10 3.7-6.9 2.1-14.2 6.8-16.1 10.3-.8 1.6-1.9 3.2-2.5 3.8-1.5 1.4-6.4 13.2-6.4 15.4 0 .9-.4 2.1-.9 2.7-1.2 1.2-2.9 9.3-4.7 22.9-2.5 18.7-.6 43.5 3.3 43.5.7 0 1.3.9 1.3 2 0 2 7.6 11 9.3 11 .5 0 1.5.7 2.3 1.5.9.8 2.4 1.5 3.5 1.5 1 0 1.9.7 1.9 1.5 0 1.8 5 4.5 8.3 4.5 1.2 0 2.8.5 3.4 1.1.6.6 2.8 1.7 4.9 2.5 3.8 1.4 3.7 1.5-5.1 1-18.4-.9-37.6-11.2-43.9-23.4-.9-1.8-2.1-3.2-2.6-3.2s-1-1-1.2-2.2c-.2-1.3-1.7-3.2-3.5-4.3-1.8-1.1-3.2-2.8-3.3-3.7 0-.9-.3-1.8-.7-2-1.4-.5-5.1-9.1-6.8-15.3-1.2-4-1.9-11.9-2.2-24-.6-18.8.5-31.7 3-37 .8-1.7 2-4.4 2.8-6.1.7-1.7 2.4-3.5 3.9-4.1 2.3-.9 2.8-1.8 3.3-5.9.3-2.7.1-5.4-.4-6-.5-.6-1-4.6-1.1-9-.2-6.8.1-8.5 2-11.4 4.8-7.6 9.2-10.7 12.4-8.6 1.3.8 2.1.7 3-.2.9-.9.7-1.2-1.2-1.2l-2.5-.1 2.5-1.4c1.4-.8 3.2-1.4 4-1.4 1 0 1.1.2.3.6-2.8 1.1-1.1 2.3 3.2 2.3 3.5 0 5.2.6 7.3 2.5 1.5 1.4 3.2 2.5 3.9 2.5 3.9 0 14.2 8.6 14.3 11.9 0 .9.6 1.1 1.8.6 6.2-2.6 15.5-4.9 24.9-6 2.2-.3 6.8-.9 10-1.3 12-1.7 30.7.3 37.3 3.8 1.4.7 3.9.9 6.7.5 3.6-.5 4.6-1.1 5.4-3.3 1.4-4 2.3-5.5 4.4-6.6 1.1-.6 2.8-2.1 3.8-3.4 1-1.2 2.4-2.2 3.2-2.2.7 0 1.5-.5 1.7-1.1.2-.5 2.8-1.6 5.8-2.3 5.9-1.3 11.7-.5 19.3 2.8zm-100 91.6c1.5 5.6 5.7 14.2 8.3 17.1.8.8 1.4 2 1.4 2.6 0 .6 2.3 3.1 5 5.7 2.8 2.6 5 5.4 5 6.3 0 2.8 3.1 5.3 6.6 5.3 1.8 0 3.6-.4 3.9-1 .3-.6 1.7-1 2.9-1 2.4 0 3.6-2.1 3.6-6.8 0-2.6 1.6-2.9 2.9-.4.5 1 2.1 2.4 3.6 3.2 2.3 1.2 2.6 1.9 2.1 4.5-.4 1.6-2 5.6-3.6 8.7-1.7 3.2-2.8 5.8-2.6 5.8.2 0-.6 1.9-1.9 4.2-3.7 6.5-5.5 10.9-5 11.8.8 1.2-9.4 2.8-18.5 2.8-8.6 0-17-1.4-22.5-3.7-1.6-.7-4.6-1.5-6.5-1.7-1.9-.2-3.6-.9-3.8-1.4-.2-.6-.9-1-1.6-1-.8 0-2.5-.9-3.9-2.1-4.9-3.7-6.5-12.2-8.3-42.4-.5-9.1-.4-10.8.7-9.8.7.7 2.5 1.3 3.9 1.3 3.4 0 5.3-3.4 4.8-8.6-.4-4.9 1.4-5.4 6.7-1.8 3 2 4.7 2.5 7.3 2 1.9-.3 3.7-.8 4-1.1.9-.8 2-10.3 2.3-18.5.2-7.3.2-7.2 1 3.5.4 6 1.4 13.5 2.2 16.5z"/><path d="M209.5 41c-.3.5-.2 1 .4 1 .5 0 1.3-.5 1.6-1 .3-.6.2-1-.4-1-.5 0-1.3.4-1.6 1zM217 40.9c0 .9 2.4 2.1 4.1 2.1.5 0 .9-.7.9-1.5 0-.9-.9-1.5-2.5-1.5-1.4 0-2.5.4-2.5.9zM205 44.1c0 .5.5.7 1 .4.6-.3 1-.8 1-1.1 0-.2-.4-.4-1-.4-.5 0-1 .5-1 1.1zM224 43.8c0 1.2 1.9 2.6 2.6 1.9.2-.2-.2-1-1.1-1.7-.9-.8-1.5-.8-1.5-.2zM202.6 46.6c-.4.9-.4 1.9-.1 2.2.2.3.7-.3 1.1-1.2.4-.9.4-1.9.1-2.2-.2-.3-.7.3-1.1 1.2zM66 48.3c-4.4 1.1-7.1 3.4-9.7 8.5-2.2 4.1-1.6 7 1.6 8.7 2.6 1.3 3.3 1.3 6.3 0 7.9-3.5 11.1-9.1 9.2-16.3-.7-2.4-.9-2.4-7.4-.9zM82 51c0 1.1.5 2 1 2 .6 0 1-.9 1-2s-.4-2-1-2c-.5 0-1 .9-1 2zM209.7 51.3c-2.8 3.4-1.5 9.3 3.1 13.9 2 2.1 3.9 3.8 4.4 3.8 1.6 0 5.8-5.6 5.8-7.9 0-4.6-6.4-12.1-10.2-12.1-.7 0-2.1 1-3.1 2.3zM201.2 52c0 1.4.2 1.9.5 1.2.2-.6.2-1.8 0-2.5-.3-.6-.5-.1-.5 1.3zM127.4 54.1c-.4.7-.9 4.2-1.2 8-.5 6.7-.4 6.8 2.2 7.5 3.6.9 5.2-1.5 5.9-8.6.4-4.3.1-5.8-1.1-6.8-2-1.5-4.9-1.6-5.8-.1zM136.9 56.1c-1.1 2.1-.7 10.8.6 12.9.3.6 1.5 1 2.5 1 2.3 0 4.1-7.3 3.1-12.2-.8-4.1-4.4-5.1-6.2-1.7zM200 57.2c0 .7.5 2 1 2.8.8 1.2 1 1.1 1-.7 0-1.2-.4-2.5-1-2.8-.5-.3-1 0-1 .7zM99.2 150.3c-1.2 1.3-2.2 3.3-2.2 4.5 0 5.2 8.7 8.6 11 4.3 1.2-2.3 1.3-7.1.2-8.7-.4-.6-2.1-1.4-3.7-1.8-2.5-.5-3.5-.2-5.3 1.7zM120.4 151.4c-.8 3.4-.1 6.1 1.6 6.1.8 0 1.6-.8 1.8-1.8.5-2.5-.6-6.7-1.8-6.7-.5 0-1.2 1.1-1.6 2.4zM125.6 152.6c-.8 3.2 1 5.7 2.4 3.4 1.5-2.3 1.2-6-.4-6-.8 0-1.7 1.2-2 2.6zM96.1 165.4c-2.4 2.5-2.1 4.6.5 4.6.8 0 1.4-.7 1.4-1.5s.5-1.5 1-1.5c.6 0 1-.9 1-2 0-2.6-1.2-2.5-3.9.4zM102 166c-1.1 1.1-2 2.6-2 3.4 0 2.7 1.8 2.7 3.9 0 3.7-4.7 2.1-7.4-1.9-3.4zM144.5 171c-1.5 3-1.3 5 .5 5 1.3 0 4.2-5.9 3.5-7-1.1-1.8-2.4-1.1-4 2zM118.1 170.4c-2.7 3.2 3.5 9.6 9.1 9.6 2.3-.1 7.8-4.1 7.8-5.8 0-.5-.9-1.7-1.9-2.6-1.8-1.6-2-1.6-3.4.4-1.6 2.3-3.8 1.9-7.1-1.2-2.4-2.2-3-2.2-4.5-.4zM149.5 172c-1.5 3-1.3 5 .5 5 1.3 0 4.2-5.9 3.5-7-1.1-1.8-2.4-1.1-4 2z"/></svg>