<svg version="1" xmlns="http://www.w3.org/2000/svg" width="682.667" height="682.667" viewBox="0 0 512.000000 512.000000"><path d="M.1 231.2c0 123.9.3 224.8.6 224.1.2-.7 1.1-.9 1.9-.6 1.7.6 1.9-.8.2-2.5-.8-.8-.5-1.4 1.5-2.1 1.5-.6 2.7-1.6 2.7-2.2 0-.7.3-1 .6-.6 1.3 1.3 3.4-2.3 3.4-5.7 0-2.5-.6-3.8-2-4.6-1.4-.7-2-.7-2 0 0 .5-1.2 1-2.6 1-2.4 0-2.6-.2-2-3.3.4-1.7.7-4.2.8-5.5.1-4 1.8-2.3 1.8 1.8 0 3.9 1.3 5.4 2.3 2.6.6-1.5 5.3-1.1 7.4.6.9.7 1.5.5 1.9-.6.4-.9.4-2 0-2.3-.9-1 1.5-3.3 3.4-3.3s3 1.8 3.1 5.3c0 1.9.2 1.8 1.1-.6.9-2.5 2.3-3.1 6.5-3 .9.1 1.1-.8.7-2.6-1-3.8-2.4-5-2.4-1.8 0 1.5-.4 2.7-1 2.7-1.6 0-1.2-3.6.6-5.1 1.3-1 1.7-1 2.5.2.5.8.9 1 .9.5s.6-.3 1.4.3c.7.6 2.5 1 4 .9 2.5-.2 3.1-1 2.6-3.3-.1-.6.2-.7.6-.3.4.4 2 0 3.5-.9 3.9-2.3 5.9-.5 3.5 3.1-2.6 4.1-1.5 5 2.2 1.7 2.5-2.1 14.2-3 14.2-1 0 1.5 10 .6 12.9-1.2 1.8-1.2 2.3-1.2 3.1.1.9 1.3 1.1 1.3 1.9.1.6-1 2.6-1.4 6-1.3 4.2.1 5.1-.2 5.1-1.6 0-1 .9-2.3 2.1-3 1.2-.8 1.8-.9 1.5-.3-.8 1.2 1.2 5.6 2.1 4.7.3-.3.9-2.3 1.3-4.5.6-3.6.5-4-1.4-4.4-1.2-.3.2-.3 2.9-.2 2.8.2 5.9 0 7-.5 1.7-.6 1.4-.9-2.1-1.9-7.2-1.9-13.3-2.9-15.9-2.3-4 .7-2.9 2.1 1.4 1.5 2.3-.3 4.1-.1 4.5.6.5.7.2 1-.6.9-.7-.2-1.2.3-1.1.9.4 1.6-2.3 1.7-3.3.2-.3-.6-1.9-.9-3.5-.5-2.2.4-2.9.1-3.4-1.5-.7-2.1-.7-2.1-15-1.9-9.4.2-9.6-.8-.4-1.6 6.6-.6 9.3-1.4 4.5-1.4-1.8 0-2.6-.4-2.3-1.3.3-.8 3.1-1.2 9.8-1l9.4.1-7.2-1.8c-3.9-1-7.8-2.1-8.5-2.4-1.7-.8 10.9.1 14.1 1 2 .6 2.2.4 1.7-1.4-.4-1.1-.2-2.3.3-2.7.6-.3.8-1.9.4-3.5-.3-2-.1-3 .6-3 2 0 2.4-3 .7-4.3-1.5-1.1-1.4-1.4 1.2-2.3 2.7-1 2.9-1 2.6 1-.3 1.1.3.3 1.1-1.9 1.7-4.2 3.6-14.7 2.8-15.5-.2-.2-.8.2-1.3 1-1.5 2.4-3.9 1.9-5.3-1-2.2-4.3-1.7-7.4 1.3-7.8 2.3-.2 2.3-.1.8 1.1-1.5 1.2-1.6 1.8-.5 4 .7 1.6 1.8 2.5 2.5 2.2.8-.3 2-.5 2.8-.5.8 0 1.4-.5 1.4-1 0-.6-.7-1-1.5-1-1.4 0-2-2.4-1.6-5.7.1-.8-.5-1-1.4-.7-1.9.8-5.4-.2-7.9-2.1-1.8-1.4-1.8-1.6-.4-2.8 1.2-.8 1.5-2.1 1.1-4-.6-2.8-2.3-3.8-2.3-1.2 0 .8-.4 1.5-.8 1.5-1.3 0-3.2-2.3-3.2-4 0-.8-.8-2-1.9-2.7-1-.6-2.1-2.1-2.4-3.2-.4-1.8-.2-1.9 1.4-1 1.5.7 1.9.6 1.9-.6 0-.8-.7-1.5-1.6-1.5-.8 0-1.2-.5-.9-1 .3-.6-.1-1.3-1-1.6-1.4-.6.8-1.9 9-5.5 8.2-3.5 17.4-3.8 20.1-.8 1.9 2.2 1.9 2.2-.6 1.4-2.3-.7-2.4-.7-1 1.1.8 1 2 2.2 2.5 2.6.7.5.6 1.1-.1 1.5-.6.5-1.6 2.3-2.2 4-1 3-.9 3.3.9 3.3 1.1 0 1.8.4 1.5.8-.3.5.2 2.1 1 3.6 1.9 3.8 1.8 4.6-.8 4.7-2 0-2.1.1-.5.8 1.7.6 1.7.8.3 2-2.4 2-2 3.9.8 3.7 2-.1 2.4-.6 2.2-3.2-.4-4 1.1-7.7 2.5-6.8.9.5 1 0 .6-1.5-.4-1.7-.2-2.1.9-1.7.9.3 1.2.1.9-.4-.9-1.4 4.7-10 6.5-10.1 1 0 1.1-.2.3-.6-.7-.2-1.3-.9-1.3-1.5s.6-.8 1.4-.5c.8.3 1.7-.1 2-.9.3-.8 1.2-1.4 2.1-1.4.8 0 1.5-.5 1.5-1.1 0-.5-.4-.8-.9-.5-1.4.9-3.2-2-2.5-4 .6-1.7.5-1.7-.9.1-1.5 1.9-1.5 1.9-1.4-.8.1-1.5.7-2.7 1.3-2.7 1.4 0 2.4-5.4 1.3-7.1-.5-.8-.8-.7-1.2.2-.3 1-.7.8-1.3-.6-.4-1.1-1.4-2.5-2.2-3-1.1-.9-1-1.4.7-2.9 1.9-1.7 2.1-1.7 2.1-.3 0 2.2 2.6 2.2 3.4 0 .4-1 .1-2.2-.8-2.8-1.3-1-1.2-1.3.2-2.2 1.5-1 1.3-1.2-1.1-1.2-1.6-.1-2.6-.5-2.2-1.1.4-.6-.6-1-2.2-1-1.5-.1-3.9-.7-5.3-1.5-2.5-1.4-2.4-1.4 1.7-1.5 2.3 0 5.3.4 6.7 1 1.5.6 2.8.6 3.1 0 .3-.5 1.8-.8 3.3-.6 1.5.2 2.1.1 1.4-.1-.8-.3-1-1.2-.7-2.4.4-1.2.1-2.1-.9-2.5-2.7-1-1.8-2.3 1.4-2.1 1.7.1 2.8.7 2.6 1.3-.3.8.2.8 1.8.1 2.7-1.3 2.9-3.5.8-6-1.4-1.6-1.4-1.7.8-1.5 1.2.2 2.5-.3 2.7-1 .3-.7-.3-1.2-1.5-1.2-1 0-2.8-.8-4-1.8-2-1.7-2-2-.6-4.1 1.1-1.5 2.2-2 3.7-1.6 1.7.5 1.9.4.7-.4-.8-.6-2.4-1.1-3.4-1.1-1.9 0-1.9 0-.1-1.3 1.7-1.3 1.7-1.4-.3-2.9-1.2-.8-1.9-1.8-1.6-2.1.4-.4 0-.9-.9-1.3-1.3-.5-1.4-1-.6-2.5.6-1.2.6-2.6.1-3.7-1.2-2.3-.4-4.2 1.5-3.5 1.2.5 1.4.1.9-1.5-.6-1.7-.4-2.1.7-1.6 1.7.6 3.2-1.2 1.8-2.1-.9-.5 1.4-7.2 3-8.5.3-.3 1.4-2.7 2.5-5.5 2.1-5.6 7.2-11 12.1-12.6 2.9-.9 3.6-.7 6.5 1.5 1.8 1.3 4.7 4.1 6.5 6 1.7 2 4 3.6 5 3.6 1.8-.1 8.9-8.7 11.8-14.4 2.5-4.7 1.9-9.4-1.5-12.6-1.7-1.5-3-3-3-3.3 0-.2 1.3-1 2.9-1.7 2.8-1.1 3.3-1 6.2 1.8 1.8 1.7 3.8 2.8 4.5 2.5.7-.2 2.9-2.5 4.8-5 3.8-4.9 4.8-10.7 2.4-13.1-1-1-1-1.5 0-2.1.8-.5 1.3-1.2 1.2-1.7-.1-.5 1.2-1.4 2.8-2.1 2.6-1.1 3.4-.8 9.3 2.9 11.2 7.2 23.3 13.9 25.2 14.1 1.1.1 2.3-.5 2.8-1.3 1.8-3.1 11.7-24.6 12.4-26.8.4-1.3 1.5-2.2 2.8-2.3 5.9-.4 11.1.3 13.2 1.7 2.4 1.6 14.1 4.4 18.2 4.4 1.3 0 2.3.3 2.3.8 0 1.1 7.7 3.3 9.5 2.6.9-.4 2.1.1 2.9 1.1 1 1.4 2.6 1.7 8.4 1.6 4-.1 7.2.3 7.2.8s1 1.1 2.3 1.3c1.3.2 2.1.9 1.9 1.8-.1.9.5.6 1.5-.7 1.3-1.7 2.2-2 3.3-1.3.8.5 1.1 1 .5 1.1-.5 0 1.5.7 4.5 1.4 4.8 1.2 5.8 1.2 7.9-.2 1.3-.8 2-1 1.7-.4-.8 1.2-.7 1.3 5.1 1.5 2.3.1 4-.1 3.8-.5-.5-.8 5.4-1 7.8-.3.9.3 1.4 1 1.1 1.6-.5.7.3.9 2.2.5 1.6-.3 2.3-.4 1.6-.1-1 .5-1 .9 0 2.2 1 1.1 1 1.6.1 1.9-.7.2-.9 1.2-.6 2 .5 1.3.2 1.5-1.1 1-1-.4-2-.7-2.4-.7-.3 0 .3-.7 1.4-1.5 1.6-1.3 1.7-1.6.4-2.5-2.2-1.5-3.1-1.2-3.7 1-.3 1.1-.9 2-1.4 2-.5 0-.9 1-.9 2.2 0 1.7.3 1.9 1.2 1 1-1 4.8-1.7 4.8-.9 0 1.6-3.9 7.2-4.8 6.9-.7-.2-1-.8-.6-1.3.3-.5.1-.9-.5-.9-.5 0-1.3.4-1.6 1-.3.5-.2 1 .3 1s1.2.9 1.5 2c.3 1.1.1 1.8-.4 1.4-.5-.3-.9.3-.9 1.3s-.7 3.1-1.5 4.7c-1.8 3.5-1.9 4.9-.2 4.3.6-.2 1.8.3 2.5 1.2 1.1 1.4 1.3 1.4 2.7-.3.8-1.1 1.6-1.8 1.8-1.5.1.2.9 1.7 1.7 3.4.8 1.6 2 3.7 2.8 4.5.7.8 1.9 2.4 2.6 3.4.9 1.4 1.8 1.7 3.2 1.1 1-.4 2.4-.9 2.9-1.1.6-.1 1.9-.5 3-.9 1.6-.6 1.7-.5.5.4-.8.6-1.3 1.1-1 1.1.9 0 8.5-2.9 7.7-3-.4 0 .9-1.5 3-3.2 2.1-1.8 4-3.5 4.3-3.8.3-.3 1.3-.6 2.3-.6 1.4-.2 1.5.1.6 1.2-3.2 3.9 2.9 1.5 7.3-2.9 2-1.9 3.9-2.2 5.3-.8 1.6 1.5 5.9.2 9.5-2.9 4.3-3.7 6.9-4.4 6.3-1.9-.3 1.1-1.1 1.9-1.9 1.9-.7 0-2.4 1.1-3.9 2.4-2.2 2-2.3 2.5-1 3.6 1 .8 1.2 1.8.6 2.9-.5.9-.6 2.1-.4 2.8.2.6-.4 1.3-1.4 1.6-1.2.3-.8.5 1 .6 1.5 0 2.7-.4 2.7-1s.9-.8 2-.4c1.6.5 2 .2 2-1.4 0-1.2.5-2.1 1.2-2.1.8 0 .6-.6-.4-1.7-1.2-1.2-2.1-1.3-3-.6-.9.8-1.7.7-2.6-.3-1-1.1-1-1.4.5-1.2 3.9.3 6-.3 8.1-2.2 1.2-1.1 2.5-2 3.1-2 .5 0 1.2-.6 1.5-1.3.3-.6.3-.1 0 1.1-.5 2.1-.3 2.3 1.8 1.7 1.5-.4 1.9-.3 1 .3-.7.5-1.4 1.5-1.5 2.3-.2.8-.6 1.9-.9 2.5-.4.6-.5 2.4-.3 4s.4 3.2.4 3.6c.1.5 1.8.8 3.9.8 2.1 0 4.7.6 5.8 1.4 1.1.8 3.1 1.6 4.4 1.8 1.6.2 2.4.9 2.2 1.9-.2 1.5 3.9 2.9 9.3 3.3.6.1 1.3.5 1.6 1 .4.4 1.6-.1 2.7-1.2 1.1-1.1 2.3-1.8 2.6-1.4.4.3 1.2-.3 1.9-1.2 1.1-1.5 1.7-1.7 3.5-.7 1.9 1 2.2.9 2.2-.9 0-1.2-.4-1.9-.9-1.5-1.3.7-2.4-1.2-1.6-2.6 1.1-1.6 3.6 2.7 3.8 6.5.2 2.8.4 3.1 1.9 2.2.9-.5 2.1-2.6 2.6-4.6.8-2.9 1-3.1 1.1-1 .1 2.2.3 2.3 1.2.7.5-.9 2.1-1.7 3.4-1.7 2 0 2.5-.5 2.5-2.4 0-1.7.7-2.7 2.2-3.2 3.7-1.1 7.8-1.2 7.8-.2 0 .6-.6.8-1.3.5-.7-.3-2.2.2-3.2 1-1.8 1.4-1.8 1.5-.2.9 1-.3 3-.6 4.3-.6 1.5 0 2.4-.6 2.4-1.6 0-1.3.3-1.4 1.5-.4.8.7 2.4 1 3.5.7 1.1-.3 1.8-.1 1.4.4-.3.5-.1.9.5.9 1.3 0 1.4 43.6.1 46-.5 1-2.6 2-4.7 2.4-2.1.3-6 1.7-8.7 3.1-2.7 1.4-5.5 2.5-6.3 2.5-.7 0-1.3.4-1.3.9s-2.6 1.7-5.7 2.6c-3.2.9-6.8 2.1-8.1 2.6-2.5 1-4.6.3-3.7-1.2.4-.5.1-.9-.6-.9-1 0-1-.3-.1-1.2 1.6-1.6 1.5-3.3-.1-1.9-1 .8-1.4.7-1.4-.4 0-.8.4-1.5.9-1.5 1.8 0 .7-4.2-1.2-4.7-1.1-.3-2-.9-2-1.4 0-.5-.7-.9-1.5-.9s-1.5.4-1.5 1c0 .5-.7 1-1.5 1-2.1 0-1.9 2 .3 2 1.5.1 1.5.2-.3 1.6-1.7 1.3-1.8 1.6-.5 2.4 1.2.8 1.3 1.2.2 1.9s-1.1.9.1 1.4c1 .3 1.3 1.4 1 3.1-.6 2.9 1.3 3.6 2 .8.4-1.3.5-1.2.6.5.1 2.9-1.3 3.7-3.8 2.1-2.6-1.6-4.2-.1-1.8 1.7 1.6 1.2 1.6 1.3-.8 1.9-2.8.7-13.8 7.4-14.3 8.8-.2.4-1 .8-1.8.8s-2.9 1.3-4.7 2.9c-1.7 1.6-4.5 4.1-6.2 5.5-1.6 1.4-2.8 2.6-2.4 2.6.3 0-1.7 2.3-4.3 5.1-2.6 2.8-4.8 5.5-4.8 6.1 0 .5-1.1 2.1-2.5 3.6s-2.5 3-2.5 3.4c0 .3-1.7 3.3-3.8 6.5-2.1 3.2-4.4 7.1-5.2 8.8-.8 1.6-2.2 3.9-3.1 5-.9 1.1-2.7 3.8-3.8 6.1-4.1 7.8-10.3 12.4-16.9 12.4-1.2 0-2.2.4-2.2.9 0 .4-1.2.6-2.7.4-2.2-.4-2.5-.2-1.3.6 1.9 1.4.5 1.4-2.1.1-1.5-.8-1.9-.7-1.9.4 0 1-.6 1.3-1.5 1-.8-.4-1.5-.1-1.5.5s.5 1.1 1.1 1.1c.5 0 .7.5.4 1-.9 1.4 4.4 3.2 7.2 2.5 2.2-.5 2.2-.5.5 2.5-.9 1.6-2.3 3-3 3-1.7 0-4.3 2.6-3.5 3.4.4.3 1.7-.1 2.9-.9 2.4-1.6 5.8-1 5.1.9-.2.6-1.2 1-2.1 1-.9-.1-1.6.4-1.6 1.1 0 1.7-5.5 5.1-9.7 6-1.8.3-3.3 1.1-3.3 1.6s-.6.9-1.4.9c-.7 0-1.9.7-2.6 1.5-.9 1-.9 1.5-.1 1.5.6 0 1.1-.5 1.1-1.2 0-.6.7-.4 1.8.5 2.3 2.1 4.6 2.2 6.2.2 1.8-2.2 2.2-1.3 1 2-1 2.6-1.3 2.7-5.5 2.2-4.2-.6-6.7.4-4.5 1.8 1.6 1-.8 3.5-3.1 3.5-1.1 0-1.9.7-1.9 1.5 0 1-1.4 1.7-4 2.1-4 .7-5.1 1.8-2.7 2.7.6.3.1.6-1.3.7-1.4.1-2.9.3-3.5.5-.5.1-2.3.3-3.9.3-2 .2-2.7.6-2.3 1.6.7 1.9-2.3 1-4-1.2-.8-1-2.1-1.2-3.9-.8-1.8.5-3 .3-3.5-.6-.6-.9-.9-1-.9-.1 0 .7-.7 1-1.5.7-.8-.4-1.5-.1-1.5.5s-.5 1.1-1.1 1.1c-.6 0-.9-.7-.6-1.5.4-.8.2-1.7-.4-2-.5-.4-1.2.1-1.5.9-.3.9-1 1.6-1.6 1.6-.5 0-.6-.5-.3-1 .3-.6 0-1-.7-1-.9 0-.9-.3.2-1 1.2-.8 1-1-.8-1-1.3 0-2.1.4-1.8.9.9 1.3-4 3.1-5.2 1.9-1.1-1.1-.5-7.6.8-9.3.5-.6 1-2.4 1.1-4 .2-1.7 2-4.9 4.1-7.4 3.9-4.5 4.8-8 2.5-10.3-.8-.7-1.7-4-2.1-7.3-.7-6.2-1.3-7.6-2.4-5.9-.4.6-1.6 1.4-2.7 1.8-1.9.7-1.9.8.5 2.6 1.4 1 2.1 2.2 1.7 2.6-.4.4-.7.2-.7-.5 0-.8-.6-1.1-1.6-.7-.8.3-1.2.2-.9-.4.9-1.4-.7-1.2-3 .4-1.1.7-3.6 1.6-5.5 1.8-2 .3-4.9 1.2-6.5 2-1.7.8-3.5 1.3-4.2 1.1-.6-.2-2.6.3-4.3 1.2-2.5 1.3-3.5 1.4-4.6.4-.8-.6-1.4-.7-1.4-.2 0 1.1-8.6 3.7-9.9 2.9-.5-.3-1.2 0-1.4.6-.4 1-.8.9-1.6-.2-.9-1.2-1.1-1-1.1 1-.1 2.4-.1 2.4-1.5.6-1.3-1.8-1.3-2.2.5-4.1 2.1-2.2 2.7-6.5 1-6.5-.5 0-1 .9-1 1.9 0 1.1-.7 2.6-1.5 3.5-1.9 1.9-1.9 5 0 7 1.7 1.7 2 7.2.4 8.1-1.6 1.1 2.9 5.3 6.2 5.9 1.6.4 4.3.9 5.9 1.2 1.7.3 2.8 1 2.4 1.5-.3.5.1.9.8.9 1.3 0 6.6 6.9 6 7.8-.2.2.8 1.3 2.2 2.6 2.6 2.1 3.6 4.4 1.5 3.1-.6-.4-1.7.2-2.5 1.4-.9 1.2-1.9 1.9-2.4 1.6-1.1-.7-4.4 4.1-3.7 5.2.8 1.3-3.3 1.4-5.5.2-1.3-.7-2.3-.7-3.2 0-.7.6-1.6.8-2 .4-.4-.4-.4 0 0 1 .7 1.8 2.4 2.3 2.4.7 0-.6.7-1 1.5-1 1.4 0 1.3.3-.2 2.4-1.2 1.5-2.2 2.1-2.9 1.5-.6-.5-1.4-.6-1.8-.2-.4.4-1.1.1-1.6-.7-.5-.8-1.2-1.1-1.5-.8-1.3 1.2.7 3 2.7 2.5 1.1-.3 1.8-.1 1.5.6-.2.6-1.6 1.4-3.1 1.8-2 .6-2.9.3-3.7-1-1-1.4-2.1-1.6-8.3-.8-9.3 1-10.4 1.2-11.1 1.9-.3.3-2.2.2-4.3-.3-2.2-.5-4.1-.4-4.8.2-.7.6-1.8.9-2.6.8-2.4-.3-3.9.1-3.5.8.3.5-2.8.7-6.8.5-6.6-.3-7.6-.1-8.7 1.7-.8 1.3-2.3 2.1-4 2.1-1.7 0-3.3.8-4 2-.7 1.1-1.8 2-2.5 2s-1.3.4-1.3 1c0 .5-.7 1-1.5 1-2 0-5.5 5.8-4.8 7.9.4.9.3 1.3-.1.9-1.3-1.1-4.2 2.6-3.8 4.6.4 1.4.2 1.7-.8 1.1-1-.6-1.2-.3-.8 1.3.4 1.2.2 2-.3 1.7-.4-.3-1.1.6-1.5 2-.3 1.4-1 2.5-1.5 2.5s-.6.6-.3 1.4c.3.7-.2 1.6-1 1.9-.9.4-1.6 1.6-1.6 2.7s-.9 3.9-2 6.1c-1.2 2.2-1.8 4.4-1.5 4.9.3.5-.2 2.6-1.1 4.7-3.6 8.4-3.7 8.7-3.5 13l.1 2.3h157.9l.4-3.3.4-3.2.1 3.2.2 3.3h6.9c6.4 0 7-.2 7.4-2.3l.4-2.2.2 2.2c.1 1.9.7 2.3 3.7 2.3 3.5 0 3.6-.1 3.2-3.1-.4-2.5-.2-3 1.3-2.6 1.5.4 1.6.2.6-1.4-1.2-2-3.7-2.6-3.7-.9 0 .5-.8 1-1.7 1-1.5 0-1.4-.3.4-1.9 1.1-1 2.9-2.1 3.9-2.3 1.2-.2 1.8-1 1.6-2.3-.5-3-2.1-4.2-3.2-2.5-.5.8-1.3 1.1-1.7.6-.4-.5-.2-1.1.4-1.3.7-.3 1.3-1.3 1.3-2.4 0-3.6 2.4-1.5 4.5 4.3.7 1.7 4.5 3.2 4.5 1.7 0-.5-.4-.9-1-.9-.5 0-1-.7-1-1.6 0-1.2.6-1.5 2.1-1.1 1.5.4 1.9.3 1.2-.4-.8-.8-.7-1.9.3-3.7 2-3.9 1.7-5.7-1.1-7.2-3.1-1.7-3.2-3.2-.2-2.8 1.9.3 2.2-.1 2.2-3.2 0-2.7.4-3.5 1.8-3.4 1 .1 1.7-.5 1.7-1.5 0-1.3.2-1.4.9-.1 1.3 2 .3 3.2-2 2.5-2.1-.7-2.5.5-.7 2.3.9.9.9 1.5 0 2.4-2 2-1.4 2.6 2.6 2.4 4.5-.1 6.3-1.6 5.5-4.5-.4-1.7-.2-2 1.1-1.5 1.8.7 2.1 2.9.6 3.9-.6.3-1 1.4-1 2.5 0 2-2.6 3.4-3.6 1.9-.8-1.4-4.4 1.9-4.4 4.2 0 .9-.5 1.9-1.2 2.1-.7.3-.9 1.2-.5 2.2.7 1.7 1 1.6 3.2-.8 1.4-1.5 2.5-3.1 2.5-3.7 0-1.2 1.4-1.1 2.7.2.6.6.9 1.9.6 2.8-.4 1.3-.3 1.3.5.2 1.4-1.9 3.2-.5 3.2 2.5 0 2.9 1.7 2.3 2.9-.9.6-1.5.2-2.8-1.4-4.5-1.3-1.4-2.1-3.2-1.8-4.3.3-1.2 0-1.9-.8-1.9-1-.1-.8-.5.4-1.4 1.5-1.2 1.6-1.8.8-3.5-1.5-2.7-1.4-3.2.7-2.9 1.1.2 1.8-.4 2-2 .2-1.2 0-2.3-.5-2.3-6.1-.9-6.3-.8-6.4 1.9-.2 2.4-.2 2.4-.6.4-.2-1.2-.7-2-1.1-1.8-.4.2-.8-.6-.8-1.9-.2-2 .2-2.3 2.5-2 1.4.2 2.1.2 1.5-.1-.7-.3-1-1.4-.7-2.4.4-1.4 1.4-2 3.4-2 1.6 0 2.9.4 2.9 1 0 .5-.9 1-2.1 1-1.5 0-1.9.4-1.5 1.6.3.9.6 1.8.6 2.1 0 .3.6.1 1.3-.4.6-.5 2.5-1.5 4-2.1 2.6-1.1 2.8-1.1 2.2.6-.3 1.1.1 2.4.8 3.1 1.2.9 1.6.4 2.1-3 .5-3.3.9-3.9 2-3 1 .8 1.6.7 2.6-.4.7-.8 1.9-1.5 2.6-1.5 2.2 0 1.6-1.4-.9-2.6-1.4-.6-3.3-.7-4.6-.2-1.4.5-2 .4-1.6-.2.3-.6.1-1-.5-1-.8 0-1-.9-.6-2.5.7-2.6-.2-3.3-1.9-1.6-.6.6-1.5 0-2.3-1.7-.9-1.9-.9-2.3 0-1.4 2 2 3.2 1.3 1.3-.8-1-1.1-1.5-2.3-1.1-2.8 1.4-1.3 6.3 5.7 5.8 8.3-.2 1.5 0 2.5.8 2.5.7 0 .9-.8.5-2-.8-2.6.6-2.6 2.8 0 2.2 2.6 7 2.1 9.6-.9 1.1-1.3 2.2-1.8 2.5-1.2.4.6 1.3.8 2 .5.7-.3 1.6.2 1.9 1 .4.9 1.4 1.6 2.4 1.6 1.3 0 1.4-.3.5-1.2-.7-.7-1.2-2.1-1.2-3.3 0-1.5.2-1.7.9-.6s.9 1.1 1.4 0c.3-.8.6.3.6 2.4.1 2.2.5 3.6 1.1 3.2 1.6-1 .7-6.5-1.3-7.1-1.8-.6-2.4-3.4-.7-3.4.6 0 1-.7 1-1.6 0-1-.5-1.4-1.5-1-1 .3-1.5.1-1.3-.7.3-1.2-1.5-6.6-3.4-10-.5-1.1-.8-2-.6-2.1.2-.1 1-.7 1.9-1.4 1.4-1 1.8-1 2.2.2.4 1 .1 1.3-.9.9-2.2-.8-1.7 1.7.8 3.8 2.9 2.6 3.6 2.4 5.2-1.4 1.4-3 1.5-3.1 2.1-1 .6 2 1.4 2.3 6.1 2.3 5.2 0 5.4-.1 5.4-2.6 0-1.9.4-2.5 1.4-2.1 1 .4 1.3.1 1-.8-.8-2-3.4-2.7-3.4-1 0 .8-.9 1.5-2 1.5s-2 .4-2 1c0 .5.6 1 1.4 1 .8 0 1.7.3 1.9.7.3.5-1.4.6-3.7.5-3.3-.3-4.2-.8-4.3-2.3-.2-1.6.5-1.9 4-2 2.6-.1 3.3-.3 1.8-.6-1.7-.3-2-.7-1.2-1.3.7-.4 1.3-2.5 1.4-4.6 0-2.2.2-3.1.4-2.1.3.9.9 1.5 1.4 1.2.5-.4.5.5-.1 2-1.3 3.4-1.3 3.6.3 3.3.6-.1 2.2.2 3.5.6 1.7.6 2.2 1.5 2.2 4.1 0 2.5.5 3.5 2.1 4 1.1.4 2.3.4 2.6.1.4-.3-.1-.6-1-.6-.8 0-1.9-.9-2.2-2.1-.8-2.5.3-3.9 1.5-2 .6 1.1 1.3.8 3.3-1.4 6.5-7.2 8.1-8.5 10.2-8.5.8 0 1.5.4 1.5 1 0 .5-.7 1-1.5 1s-1.5.9-1.5 2 .7 2.3 1.5 2.6c.8.4 1.5 1.2 1.5 2s.9 2.3 1.9 3.3c1.9 1.9 1.9 1.9 0 2.4-1 .3-1.9.1-1.9-.4 0-.4-.7-.6-1.5-.3-1.1.5-1.3 1-.5 1.9.6.7.8 2.5.4 4.1-.5 1.9-.4 2.5.5 2 .6-.4 1.1-.1 1.1.9 0 .9.4 1.4.9 1 .5-.3 1.2.3 1.4 1.2.4 1.5.5 1.5.6.2 0-.9-.6-2.2-1.4-2.9-2.3-1.9-1.8-3.1 1-2.4 2.5.6 5.5-1.3 5.5-3.5 0-1.7-1.7-1.3-2.4.5-.3.8-1.1 1.2-1.7.9-1.6-1.1 2.2-4.1 5.1-4.1 3.2.1 3.8-1.7.8-2.5-2-.5-1.8-.7 1.2-1.1l3.5-.5-3.3-.1c-2.1-.1-3.5.3-3.8 1.3-.8 2-2.1 1.9-4.2-.2-1.6-1.6-1.6-1.6.2-1 1.8.7 4.6-.7 4.6-2.4 0-.5-.8-.9-1.7-.9-1.6-.1-1.6-.2.2-1.6 1.9-1.4 1.9-1.6.3-2.8-1-.7-1.5-1.6-1.1-1.9 1.2-1.2 1.8-.7 3.1 2.3 1.4 3.2 3.2 4 3.2 1.5 0-.8-.4-1.5-1-1.5-.5 0-1-.7-1-1.5 0-2 .6-1.9 3 .5 2.3 2.3 2.5 3.6.7 4.3-.6.3 0 .6 1.4.6 1.4.1 3.4-.5 4.5-1.3 1.7-1.3 1.8-1.5.2-2.1-.9-.4-2.3-.3-3 .1-1.1.6-1.1.5 0-.8.9-1.1 1-1.8.2-2.3-.5-.3-1-.1-1 .6 0 .8-.5.7-1.8-.3-.9-.9-2.4-1.8-3.2-2.1-.8-.3.3-.6 2.6-.6 5.6-.1 10.4-1.9 10.5-3.9 0-1.3.3-1.1 1.1.5.6 1.3 2 2.3 3 2.3 1.1 0 1.8.5 1.5 1.2-.2.7-1.3 1.3-2.4 1.2-1.5 0-1.9.6-1.8 2.8.1 1.6-.2 3.1-.7 3.4-1 .6.9 3.4 2.3 3.4 1 0 .7-3.6-.4-4.6-1.5-1.5-.6-2.6 1.8-2.2 1.7.4 2.5.1 2.5-.9 0-2 2.8-2.7 4.6-1.2 1.3 1 1.7 1 2.5-.2.5-.8.9-1.7.9-2.2 0-1.2-1.8-.8-2.4.5-.5 1.1-.7 1.1-1.2 0-.3-.6-1.2-1.2-2-1.2s-1.4-.5-1.4-1c0-.6 1.6-1 3.6-1 2.4 0 3.3-.4 2.8-1.2-1.2-1.9-1.2-6.8 0-6.9.6-.1 2-.1 3.1-.2 1.6 0 1.7-.1.3-.4-1-.3-1.8-.8-1.8-1.3s-.6-1-1.2-1.3c-.7-.2 0-.2 1.5 0 1.5.3 2.7.1 2.6-.4-.1-.4.2-1.8.6-3 .6-1.8 1.5-2.3 4.1-2.3 2.7 0 3.4-.4 3.4-2 0-2.1-1.5-2.7-2.5-1-.4.6-1.1.8-1.6.4-.6-.3-.2-1.2 1-2.1 1.9-1.3 2.4-1.2 5.1.7 3.2 2.3 6.1 2.4 6.8.2.3-.9-.3-1.1-2.2-.6-1.6.4-2.6.2-2.6-.5 0-.6.8-1.1 1.9-1.1 2.2 0 4.5-2.5 3.7-3.9-.4-.5.2-1.2 1.3-1.6 1.5-.5 1.8-1.6 1.8-7 0-3.8-.4-6.2-.9-5.8-.6.3-.5-.4.1-1.5.8-1.4 1.1-54 1.1-181.6V6H0l.1 225.2zM506 12.5c0 5-1.8 6.7-4.6 4.4-1.3-1-1.7-1-2.4.2-.5.8-1.7 1.5-2.7 1.5-1 .1-3.8.4-6.3.7-2.5.4-7.3.9-10.7 1.3-3.6.4-6.3 1.1-6.3 1.8s-.3.7-.8.1c-1-1.4-4.2-1.8-4.2-.5 0 .6-.5.8-1.2.3-2.4-1.5-5.8-1.4-6.4.2-.3.8-1 1.5-1.6 1.5-.5 0-.7-.4-.4-.9.3-.5-.5-.8-1.9-.7-1.4 0-2.5.7-2.5 1.5 0 1.1-.3 1.1-1.6 0-1.3-1-1.7-1-2.5.2-.7 1.1-.9 1.1-.9 0 0-.9-.4-1-1.2-.3-.7.5-6.2 1.5-12.3 2.2-6 .7-11.6 1.6-12.4 2-.8.4-2.3.3-3.3-.4-1.5-.9-2.1-.8-2.8.4-.5.8-1.2 1.1-1.6.7-.4-.4-1.3.1-2.1 1.1-1.2 1.6-1.3 1.6-.7-.1.3-.9.1-1.7-.5-1.7s-1.1.6-1.2 1.2c0 .7-.4.4-.9-.7-.8-1.8-.9-1.8-.9-.2-.1 1.4-.6 1.7-2.1 1.2-1-.3-2.8-.1-3.9.4-1.1.6-4.8 1.1-8.3 1.2-3.5.1-6.7.5-7.3.9-1.8 1.3-8.8 2.2-8 1.1.7-1.2-.8-1.5-1.9-.4-.3.4-1.4.8-2.4.9-.9.1-3.9.5-6.7.9-2.7.4-7.1.8-9.6.9-2.5.1-5.4.8-6.3 1.5-1.2 1-4.3 1.5-10.3 1.4-5 0-8 .3-7.1.8.8.6-.2.9-3 .9-2.4 0-4.1-.4-3.8-.9.6-1-7.6 1.7-8.4 2.7-.5.7-3.4 1-10.2 1.2-2.1.1-3.8.6-3.8 1.1 0 .5-1.1.7-2.4.3-1.4-.3-3.1-.2-3.8.2-.7.5-3.8 1-6.8 1.1-3 .1-6.8.5-8.5.8-1.6.3-7.9 1-14 1.4-6 .5-13 1.6-15.4 2.5-5.3 1.9-4.9 1.9-5.3.1-.3-1.3-.6-1.3-3.2 0-1.5.8-3.2 1.3-3.7 1-.4-.3-2.9 0-5.5.6-3.8 1-4.9 1-5.2 0-.3-.8-.7-.9-1.1-.3-.3.6-3.3 1.2-6.7 1.4-3.3.3-6.4.7-7 1-.5.4-3.8 1-7.2 1.4-3.4.3-6.5 1-6.7 1.4-.5.9-9.2.6-12.3-.5-1.2-.3-2.2-.3-2.2.2 0 1-8.2.9-10-.2-1-.6-1.2-.4-.7.8.3.9.2 1.9-.3 2.2-.6.4-1 .2-1-.3s-1.4-.7-3-.4c-1.6.2-3 .8-3 1.2 0 .4-2.3.3-5.1-.3-3.2-.6-5.3-.6-5.7-.1-.9 1.3-8.4 3.5-7.6 2.3.3-.5-1-.9-2.8-.9-2.1 0-2.8.3-2 .8.7.5-2.7 1.7-8.9 3-5.5 1.2-10.5 1.9-11 1.6-.5-.3-2.4.2-4.1 1-1.7.9-3.4 1.3-3.7.9-1.1-1.5-4.1-1.4-4.8.2-.4 1.2-.8 1.3-1.3.5-.5-.9-1.3-.9-2.7-.2-1.1.6-5.4 1-9.6.9-6.3-.2-7.7.1-7.7 1.3-.1 1.2-.4 1.1-1.5-.4-1.4-1.8-4.5-1.6-4.5.2 0 .5-3.3 1.2-7.2 1.6-4 .4-9.2.9-11.5 1.2-3 .4-4.3.2-4.3-.6 0-.9-.4-.9-1.3-.2C62 74.1 52.6 75 50.9 74c-.7-.5-1.1-1.1-.9-1.3 2.4-1.8 28.9-5.6 39.2-5.7 1.5 0 3-.4 3.3-1 .4-.6 1-.8 1.5-.5.4.2 2.1.1 3.6-.5 1.6-.5 4.3-1.1 5.9-1.4 1.7-.2 4.5-.8 6.3-1.1 2.7-.6 3.2-.5 3.2 1.1 0 1.7.1 1.7 1.3.1 1.2-1.7 4.6-2.6 13-3.2 7.4-.6 13.7-1.3 19.7-2.4 3-.6 7.8-1.3 10.5-1.7 5.8-.7 8.8-1.2 9.5-1.4.3-.1 2-.1 3.8 0 1.7.1 3.2-.3 3.2-.8 0-.6 3-1.3 6.8-1.6 14.5-1.1 26-2.7 27.8-3.9.7-.4 2.3-.7 3.5-.6 2.3 0 8.3-.7 25.9-3 11.4-1.5 14-2 15-2.6.5-.3 3.1-.6 5.7-.7 2.6 0 5.8-.4 7-.9 1.3-.5 5.1-1.1 8.5-1.5 5.9-.6 9.2-1 27.3-3.4 3.9-.5 8.8-1.4 11-2 2.2-.5 6.4-1 9.3-1 2.8 0 5.2-.4 5.2-.8 0-.5 1.2-.9 2.8-.9 5-.1 26.3-2.6 33.7-3.9 1.7-.3 4.1-.7 5.5-.9 13.2-2 17.3-2.5 18-2 .5.3 1.1.1 1.5-.4.3-.5 1.3-1 2.3-1 2.6 0 9.3-.8 13.7-1.5 2.2-.4 6.3-.9 9-1.1 2.8-.3 6.6-.7 8.5-1 10.4-1.7 29.7-4.4 31-4.3 2.4 0 10.3-1 16.6-2.1C484.4 10.6 490 9.8 497 9c4.1-.4 7.8-.8 8.3-.9.4 0 .7 1.9.7 4.4zM275.2 91.3c1 1.6.4 3.2-1.3 3.3-.8.1-1.6.3-1.9.4-.3.1-1.6.4-3 .6-1.4.3-2.6.9-2.8 1.4-.4 1.2-3.2.1-3.2-1.4 0-.6 1.2-2.4 2.6-4 2.2-2.3 3.2-2.7 5.7-2.2 1.7.4 3.5 1.2 3.9 1.9zm-20.7 5.3c2 1.3 2.2 1.8 1.1 2.9-.7.8-3.1 1.5-5.2 1.7-2.2.2-4.4 1-5.1 1.8-1 1.3-1.2 1-1.3-1.7 0-5.4 5.6-7.9 10.5-4.7zm-7.7 42c1.4.4 2.1 1.2 1.8 2-.3.7 0 1.6.6 2 .7.5.8.2.3-.7-.7-1.2-.6-1.2.7-.1 1 .8 1.4 2.1 1 3.5-.5 1.8-.7 1.9-1 .4-.2-.9-.7-1.7-1.2-1.7s-.7.6-.4 1.3c.4 1-.3 1.2-2.6.9-1.9-.3-3 0-3 .7s-.4.9-1 .6c-.5-.3-1-.2-1 .3s-.7.9-1.5.9-1.5-.5-1.5-1.1c0-.7-.3-.7-.8.1-.4.6-2.1 1.5-3.7 1.8-2.5.6-2.8.5-1.7-.6.6-.7 1.2-2.5 1.2-4 0-4.8 7.2-8 13.8-6.3zm-74.6 10.1c2.8 2.5 2.4 5.1-.9 4.5-1.6-.3-3 .1-3.7.9-.6.8-2.8 1.5-4.9 1.5-3.6 0-3.8-.1-3.2-2.5 1.3-5.5 8.7-8.1 12.7-4.4zm46.1-.3c3 1.2 8.3 6 6.2 5.5-1.7-.4-6.5 1.3-6.5 2.3 0 .6-.7.8-1.5.5-.8-.4-1.7-.2-2 .3-.4.6-1.9 1-3.6 1-1.6 0-2.9.5-2.9 1.1 0 .6-.7.9-1.5.5-.8-.3-1.5-.1-1.5.4 0 .6-.4 1-1 1-1.6 0-1.1-5.9.7-9.1 2.7-4.5 8-5.9 13.6-3.5zm131.3 2c.8.8 1.3 3 1.3 4.8-.1 1.8-.3 2.5-.6 1.5-.2-.9-1.1-1.7-1.9-1.7-.8 0-1.4-.7-1.4-1.6 0-1.1-.6-1.5-2-1.1-1.5.4-2 0-2-1.4 0-2.3 4.4-2.6 6.6-.5zm32.4 2.1c.7.9 1 1.9.6 2.2-.4.4-1.1.1-1.6-.7-.7-1.1-1-1.2-1-.2 0 .7-.4 1-1 .7-1.5-.9-1.2-3.5.4-3.5.7 0 1.9.7 2.6 1.5zm-232.9 1.6c3.4 2.4 3.8 4.3.8 3.4-1.5-.5-1.9-.4-1.5.4 1 1.5-.6 1.4-2.9-.3-1.7-1.2-2.1-1.1-3.8 1-1 1.3-2.4 2.4-3.2 2.4-.7 0-1.5.6-1.7 1.2-.3.7-.7.3-1-.9-.7-2.6 1.8-8 4-8.6 3.8-1 6.5-.6 9.3 1.4zM295 159c0 1.3-1.9 2.2-3 1.5-1.4-.9 0-3.4 1.6-2.8.8.3 1.4.9 1.4 1.3zm9-1.1c0 1.2-2 2.5-2.7 1.8-.7-.7.6-2.7 1.8-2.7.5 0 .9.4.9.9zm86 1.7c0 1.6-.9 1.8-3 .4-1.3-.9-1.3-1.1 0-1.9 1.7-1.2 3-.5 3 1.5zm-245-1.2c0 .3-.4.8-1 1.1-.5.3-1 .1-1-.4 0-.6.5-1.1 1-1.1.6 0 1 .2 1 .4zm214.4.6c2.8 1 3.7 5 1.2 5-2.3 0-7-4.7-5.4-5.3.7-.3 1.4-.6 1.5-.6.1-.1 1.3.3 2.7.9zm3.6 22c.8.5 1.1 1 .5 1-.5 0-1.7-.5-2.5-1s-1-1-.5-1c.6 0 1.7.5 2.5 1zm-173.2 7.3c.4 1.9-.6 2.1-2.7.8-1.6-1-.5-3.4 1.2-2.8.7.2 1.3 1.1 1.5 2zm7.5.5c-1.8.5-2.7-.3-1.8-1.7.4-.7 1-.7 2 .2 1.1 1 1.1 1.3-.2 1.5zm176.7 7.7c0 .8.4 1.5.9 1.5s1.1.8 1.3 1.8c.4 1.5.1 1.8-1.8 1.4-1.3-.2-2.4-.8-2.4-1.3s-1.1-.9-2.5-.9c-2.3 0-2.4-.2-1.3-2 1.5-2.4 5.8-2.7 5.8-.5zm-234.9 6.3c3.2 3.5 3.6 4.4 1.4 3.6-1.1-.5-1.3-.2-.9 1 .4.9.3 1.6-.2 1.5-.5-.1-1.1-.1-1.4 0-.5.2-7.9 1-11 1.3-.8 0-2.1.5-2.7 1-2 1.6-6.3.1-6.3-2.1 0-2.3 4.5-7.9 7.4-9.2 1.2-.5 4.1-.7 6.5-.5 3.3.3 5.1 1.1 7.2 3.4zm249.7-.6c1.5 2 2.4 5.8 1.3 5.8-.5 0-1.6-.7-2.5-1.5-.8-.8-2.4-1.5-3.5-1.5-1.2 0-2.1-.6-2.1-1.4 0-2.5 5-3.5 6.8-1.4zm-207.2 4.3c1.6 1.3 1.7 1.6.4 2.5-2 1.3-3 1.3-3-.1 0-.8-.5-.7-1.5.1-2.3 1.9-3.1.3-1-2 2.2-2.4 2.5-2.4 5.1-.5zm-80.5.5c4 1.1 9.5 6.3 8.4 8-.5.8-1 .8-2.1-.1-.8-.6-1.4-.8-1.4-.4s-.6.2-1.4-.4c-1.2-1-1.3-.8-.9.8.3 1.2.1 2.1-.3 2.2-.5 0-2.8.2-5.2.4-2.9.3-4.1.1-3.6-.7.5-.7.3-.8-.5-.4-.7.5-1 1.3-.8 2 .3.7-1.1 1.2-4 1.2l-4.5.2.5-3.6c.7-3.9 4.9-8.9 8.1-9.5 3.6-.7 4-.7 7.7.3zm67.9 1.9c0 1.2-4.4 2.2-4.8 1.1-.2-.5-1-.6-1.8-.3-1 .4-1.2 0-.8-1 .3-.9 1.3-1.8 2.2-2 2-.4 5.2 1 5.2 2.2zm307 19.6c0 .8-.4 1.5-1 1.5-.5 0-1-.7-1-1.5s.5-1.5 1-1.5c.6 0 1 .7 1 1.5zM98 249.3c0 .5.9.7 2 .4 1.6-.4 2 0 2 1.9 0 1.3-.5 2.4-1.1 2.4-.5 0-.7-.5-.3-1.2.5-.8.2-.9-.9-.5-.9.3-1.9.2-2.2-.4-.4-.5-1.1-.7-1.6-.3-.5.3-1.7 0-2.5-.7-1.1-.9-1.2-1.4-.3-2 1.7-1 4.9-.7 4.9.4zm-51.9 1.8c4.1 1.3 9.9 3.9 9.9 4.3 0 .8-6-.2-7.2-1.1-.7-.6-2.5-1.3-4-1.7-1.6-.3-2.8-1.1-2.8-1.6 0-1.2 0-1.2 4.1.1zm58.4.9c.3.5.1 1-.4 1-.6 0-1.1-.5-1.1-1 0-.6.2-1 .4-1 .3 0 .8.4 1.1 1zM59 256c0 .5-.4 1-1 1-.5 0-1-.5-1-1 0-.6.5-1 1-1 .6 0 1 .4 1 1zm74.3 16.6c-.7 2-1.9 1.7-1.9-.5 0-1.1.6-1.7 1.3-1.4.6.3.9 1.1.6 1.9zM100.8 294c-.7 1-1.4 1.7-1.7 1.5-.4-.4 1.8-3.5 2.5-3.5.2 0-.1.9-.8 2zm14.8 4.2c-1.2 2-2.6 2.4-2.6.8 0-.6-.7-1-1.5-1s-1.5-.4-1.5-.9 1.5-.9 3.4-.8c3 .1 3.2.3 2.2 1.9zm-6.1.8c.3.6-.4 1-1.7 1-1.8 0-2-.2-.8-1 1.9-1.2 1.8-1.2 2.5 0zm9.5 0c0 .5-.4 1-1 1-.5 0-1-.5-1-1 0-.6.5-1 1-1 .6 0 1 .4 1 1zm3.7-.4c-.3.3-1.2.4-1.9.1-.8-.3-.5-.6.6-.6 1.1-.1 1.7.2 1.3.5zM87 299.9c0 1.2-3.9 2.1-4.5 1.1-.3-.5.1-1.1.7-1.3 2.1-.9 3.8-.8 3.8.2zm.8 3.3c2.1 2.1 1.3 3.8-1.8 3.8-1.8 0-3-.5-3-1.3 0-1.3 1.9-3.7 3-3.7.3 0 1.1.5 1.8 1.2zm4.7 1.8c-.3.5.9 1.6 2.7 2.4 2.8 1.2 3 1.4 1.1 1.5-2.4.1-3.1 1.7-1.1 2.3 1.8.6-.6 5.8-2.7 5.8-.8 0-2.4.6-3.5 1.2-1.6 1-2.4 1-4 0-2.8-1.7-3.9-1.5-5 1-.9 2.3-.9 2.3-.9.2-.1-3.1 2.4-5 4.4-3.4 2.7 2.3 2.6.4-.1-2.3-2-2-2.3-2.7-1.1-2.7.9 0 2.5 1.2 3.7 2.7 2 2.5 2.2 2.6 3.8.9 1.3-1.2 1.4-1.9.5-2.4-1-.6-1-1.6-.1-4.5.6-2 1.5-3.7 2-3.7s.6.4.3 1zm5.9 6.5c-.4.8-.8 1.5-1 1.5-.2 0-.4-.7-.4-1.5s.4-1.5 1-1.5c.5 0 .7.7.4 1.5zm412.3 35.7c-.3.7-.5.2-.5-1.2s.2-1.9.5-1.3c.2.7.2 1.9 0 2.5zM87 352.6c0 1.4-.4 2.3-1 1.9-.5-.3-1-1.5-1-2.6 0-1 .5-1.9 1-1.9.6 0 1 1.2 1 2.6zm420 16.9c0 .8.5 1.5 1.2 1.5.6 0 .8.3.5.6-.8.8-3.7-1.4-3.7-2.7 0-.5.5-.9 1-.9.6 0 1 .7 1 1.5zm-412.6 1.6c-.3.5-1 .7-1.5.3-.5-.3-.7-1-.3-1.5.3-.5 1-.7 1.5-.3.5.3.7 1 .3 1.5zm410.4 4.4c-.3.3-.9-.2-1.2-1.2-.6-1.4-.5-1.5.5-.6.7.7 1 1.5.7 1.8zm-409.5-.8c-.7.2-1.9.2-2.5 0-.7-.3-.2-.5 1.2-.5s1.9.2 1.3.5zm412.8 4c1.3 1.6 1.2 1.7-.3.4-1.7-1.3-2.2-2.1-1.4-2.1.2 0 1 .8 1.7 1.7zm-12.1 6.8c0 .8-.4 1.5-.9 1.5-1.3 0-2.2-1.6-1.4-2.4 1.1-1.1 2.3-.6 2.3.9zm6 .5c0 .5-.4 1-1 1-.5 0-1-.5-1-1 0-.6.5-1 1-1 .6 0 1 .4 1 1zm-12 1.4c0 .3-.4.8-1 1.1-.5.3-1 .1-1-.4 0-.6.5-1.1 1-1.1.6 0 1 .2 1 .4zm1.3 3.3c-.7.2-1.9.2-2.5 0-.7-.3-.2-.5 1.2-.5s1.9.2 1.3.5zm-403.3 5c0 1.7-1.2 1.6-3.5-.1-1.9-1.3-1.8-1.4.8-1.3 1.5.1 2.7.8 2.7 1.4zm396.7 1.1c-3.3.3-3.8.6-3.4 2.3.3 1 .1 2.2-.4 2.5-.5.3-.9-1-.9-2.8v-3.4l4.3.6 4.2.5-3.8.3zM471 398c0 .5-.2 1-.4 1-.3 0-.8-.5-1.1-1-.3-.6-.1-1 .4-1 .6 0 1.1.4 1.1 1zm-5.8 3.2c-.7.7-1.2.8-1.2.2 0-1.4 1.2-2.6 1.9-1.9.2.3-.1 1.1-.7 1.7zM65.5 401c.3.5.1 1-.4 1-.6 0-1.1-.5-1.1-1 0-.6.2-1 .4-1 .3 0 .8.4 1.1 1zm412 1c.4.6.4 1.8.1 2.7-.5 1.2-.9 1.3-2 .4-.8-.7-2.6-.9-4.3-.6l-2.8.6 2.4-2c2.5-2.3 5.6-2.7 6.6-1.1zm-16.3 2.2c-.9.9-1.5.9-2.4 0-.9-.9-.7-1.2 1.2-1.2s2.1.3 1.2 1.2zm5.3 1.9c-1 1.5-2.5 1-1.9-.6.4-.8 1-1.2 1.5-.9.5.3.7 1 .4 1.5zm-33.7 2.8c-.2 1.3.5 1.6 3.7 1.4 2.2-.2 3.5.1 2.8.5-.6.4-1.6 3-2.1 5.7-.7 3.3-1 4.1-1.1 2.2-.1-3.7-1.8-6.7-3.6-6.7-.8 0-1.5-.6-1.5-1.4 0-.8-.8-1.3-1.7-1.1-1 .1-1.2 0-.5-.2.8-.3 1.1-1.1.8-1.8-.3-.9.2-1.1 1.5-.8 1.1.3 1.8 1.3 1.7 2.2zm6.9-2.3c-.3.3-1.2.4-1.9.1-.8-.3-.5-.6.6-.6 1.1-.1 1.7.2 1.3.5zm13.3-.2c0 .3-.4.8-1 1.1-.5.3-1 .1-1-.4 0-.6.5-1.1 1-1.1.6 0 1 .2 1 .4zm4 0c0 .3-.4.8-1 1.1-.5.3-1 .1-1-.4 0-.6.5-1.1 1-1.1.6 0 1 .2 1 .4zm5.7.2c-.3.3-1.2.4-1.9.1-.8-.3-.5-.6.6-.6 1.1-.1 1.7.2 1.3.5zm20.3.4c0 .5-.4 1-1 1-.5 0-1-.5-1-1 0-.6.5-1 1-1 .6 0 1 .4 1 1zm-423.3.6c-.3.3-1.2.4-1.9.1-.8-.3-.5-.6.6-.6 1.1-.1 1.7.2 1.3.5zm356.3.4c0 .5-.4 1-1 1-.5 0-1-.5-1-1 0-.6.5-1 1-1 .6 0 1 .4 1 1zm50 1.9c0 .4-.9.7-2 .7-2 0-2.5-.7-1.4-1.9.7-.7 3.4.2 3.4 1.2zm-14.5 1.1c.3.5.1 1-.4 1-.6 0-1.1-.5-1.1-1 0-.6.2-1 .4-1 .3 0 .8.4 1.1 1zm3.9-.4c.8.3 1.2 1.2.9 2-.4 1.1-.7 1.1-1.9-.1-2.3-2.2-1.9-3 1-1.9zM430 413c0 .5-.9 1-2 1s-2-.5-2-1c0-.6.9-1 2-1s2 .4 2 1zm-12.8 4.2c-.8.8-.9.4-.5-1.3.4-1.3.8-1.8 1.1-1 .2.7-.1 1.8-.6 2.3zm-21.7.7c.3.5.1 1.2-.5 1.6-.5.3-1-.1-1-.9 0-1.8.6-2.1 1.5-.7zM7.9 422.2c.1.5-.3.8-.9.8-.5 0-1-1.2-.9-2.8 0-2.4.1-2.5.9-.7.5 1.1.9 2.3.9 2.7zm48.5-1.1c-.7 1.1-4.4 1.2-4.4.1 0-1.5 1.1-2 3-1.5 1.1.3 1.7.9 1.4 1.4zM398 420c0 .5-.5 1-1.1 1-.5 0-.7-.5-.4-1 .3-.6.8-1 1.1-1 .2 0 .4.4.4 1zm-384.7.7c-.7.2-2.1.2-3 0-1-.3-.4-.5 1.2-.5 1.7 0 2.4.2 1.8.5zm25.4.9c-.3.3-1.2.4-1.9.1-.8-.3-.5-.6.6-.6 1.1-.1 1.7.2 1.3.5zm364.8 2c-.9.9-1.9 1.3-2.3 1-.3-.4 0-1.1.8-1.6 2.4-1.5 3.3-1.1 1.5.6zm-389.1 1.5c-.8 1.4-2.4 1-2.4-.6 0-.9.6-1.2 1.5-.9.8.4 1.2 1 .9 1.5zm8.1.9c-.3.5-1.3 1-2.1 1s-1.4-.5-1.4-1c0-.6.9-1 2.1-1 1.1 0 1.7.4 1.4 1zm-15.2 2.5c-.7 2.1-1.3 1.9-1.3-.6 0-1.1.4-1.8 1-1.4.5.3.7 1.2.3 2zm387-.4c-.8.8-1.6.8-3 0-1.6-.9-1.4-1 1.2-1.1 2.1 0 2.6.3 1.8 1.1zm7.6 2.9c0 1-.3.8-.9-.5-1.2-2.7-1.2-4.3 0-2.5.5.8.9 2.2.9 3zM16 432.1c0 1.3-1.2 1.1-3.2-.5-2.9-2.1-2.2-3.9.7-2 1.4.9 2.5 2 2.5 2.5zm365-2c0 .5-.4.9-.8.9-.5 0-.9-.7-.9-1.5s.4-1.2.9-.9c.4.3.8.9.8 1.5zm14 2.5c0 .8-.4 1.2-1 .9-.5-.3-1-1-1-1.6 0-.5.5-.9 1-.9.6 0 1 .7 1 1.6zm-8 .4c0 .5-.7 1-1.6 1-.8 0-1.2-.5-.9-1 .3-.6 1-1 1.6-1 .5 0 .9.4.9 1zm17.9 4c.1.9-.5.6-1.5-.8-.8-1.2-1.2-2.7-.8-3.4.8-1.2 2.2 1.3 2.3 4.2zm-4.2-1.8c-.3.8-.6.5-.6-.6-.1-1.1.2-1.7.5-1.3.3.3.4 1.2.1 1.9zM383 435c0 .5-.2 1-.4 1-.3 0-.8-.5-1.1-1-.3-.6-.1-1 .4-1 .6 0 1.1.4 1.1 1zm7.5 0c-.3.5-1.1 1-1.6 1-.6 0-.7-.5-.4-1 .3-.6 1.1-1 1.6-1 .6 0 .7.4.4 1zm6.2 2.7c-1.4.4-1.6.8-.6 1.9.6.8.9 1.7.5 2.1-.8.8-1.2.3-2-2.5-.6-1.9-.4-2.2 1.6-2.1 1.8.1 1.9.2.5.6zM389 445c-1.6 3.1-2.5 2.4-2.6-2-.1-3.3.1-3.8 1.2-2.9 1.1.9 1.4.7 1.5-.7.1-1.1.4-.7.6.8.2 1.5-.1 3.6-.7 4.8zm3.7-3.8c-.3.8-.6.5-.6-.6-.1-1.1.2-1.7.5-1.3.3.3.4 1.2.1 1.9zm7.8-.3c.3.5.1 1.2-.5 1.6-.5.3-1-.1-1-.9 0-1.8.6-2.1 1.5-.7zm3.4 2.8c.1-.9.6-1.7 1.1-1.7 1.4 0 1.3 4.7-.1 5.6-1.5.9-2.9-1.5-2.8-4.6l.1-2.5.8 2.5c.5 1.7.8 1.9.9.7zM385 443c0 .5-.2 1-.4 1-.3 0-.8-.5-1.1-1-.3-.6-.1-1 .4-1 .6 0 1.1.4 1.1 1zm-106.5 3c-.3.5-1.1 1-1.6 1-.6 0-.7-.5-.4-1 .3-.6 1.1-1 1.6-1 .6 0 .7.4.4 1zm113.3 1c-1.3 2-2.8 2.7-2.8 1.2 0-1 2.2-3.2 3.2-3.2.5 0 .3.9-.4 2zm2.7 2.6c-3.4 1.4-3.8 1.3-3-.8.4-1 1.5-1.3 3.3-1l2.7.5-3 1.3zm-21.4 1.8c-.7.8-1 2-.7 2.5.4.5.2 1.2-.3 1.5-1.5.9-2.5-1.4-1.2-2.7.6-.6 1.1-2 1.1-3.1 0-1.5.3-1.7 1.2-.8.8.8.8 1.5-.1 2.6zm-3.4-.2c-.3.8-.6.5-.6-.6-.1-1.1.2-1.7.5-1.3.3.3.4 1.2.1 1.9zM390 456c0 .5-.7 1-1.5 1s-1.5-.5-1.5-1c0-.6.7-1 1.5-1s1.5.4 1.5 1zm-24.5 1c.3.5.2 1-.4 1-.5 0-1.3-.5-1.6-1-.3-.6-.2-1 .4-1 .5 0 1.3.4 1.6 1zm-5.4 2.7c-1.2 2-1.4 1.4-.5-1.2.4-.9.9-1.4 1.1-1.1.3.2 0 1.3-.6 2.3zM188 460c0 .5-.2 1-.4 1-.3 0-.8-.5-1.1-1-.3-.6-.1-1 .4-1 .6 0 1.1.4 1.1 1zm176 0c0 .5-.4 1-1 1-.5 0-1-.5-1-1 0-.6.5-1 1-1 .6 0 1 .4 1 1zm-1.4 5.7c-.4.4-1.1.1-1.6-.7-1.6-2.5-1.1-3.5.7-1.7.9.9 1.3 2 .9 2.4zm2.8-2.1c.3.8.2 1.2-.4.9-.6-.3-1-1-1-1.6 0-1.4.7-1.1 1.4.7zm-18.9.4c.3.5-.1 1-1 1s-1.3-.5-1-1c.3-.6.8-1 1-1 .2 0 .7.4 1 1zm2.2 1.2c-.3.8-.6.5-.6-.6-.1-1.1.2-1.7.5-1.3.3.3.4 1.2.1 1.9zm9.3-.2c1.2.8.9 1-1.3 1-1.6 0-2.6-.4-2.2-1 .8-1.2 1.6-1.2 3.5 0zm-.3 5c.1 1.4-.4 2-1.8 2-2.1 0-2.2-.1-1.3-2.4.9-2.3 2.9-2 3.1.4zm-14.4-.3c-.7.2-1.9.2-2.5 0-.7-.3-.2-.5 1.2-.5s1.9.2 1.3.5zm6.7 3.3c0 .5-.4 1-1 1-.5 0-1-.5-1-1 0-.6.5-1 1-1 .6 0 1 .4 1 1zm18 1c0 .5-.7 1-1.5 1s-1.5-.5-1.5-1c0-.6.7-1 1.5-1s1.5.4 1.5 1zm-184.8 5.5c-.2 1.4-.8 2.5-1.3 2.5-1.2 0-1.1-.7.1-3.1 1.4-2.6 1.8-2.4 1.2.6zM351 478c.8.5 1.1 1 .5 1-.5 0-1.7-.5-2.5-1s-1-1-.5-1c.6 0 1.7.5 2.5 1zm-12 5c0 .5-.4 1-1 1-.5 0-1-.5-1-1 0-.6.5-1 1-1 .6 0 1 .4 1 1zm21-.1c0 .5-.7 1.1-1.5 1.5-.8.3-1.2 1.1-.9 1.9.8 2.1-2.4 4.3-3.9 2.8-.9-1-.8-1.5.6-2.5 1.6-1.2 1.6-1.4.2-2-.9-.3-1.3-1-1-1.6.8-1.2 6.5-1.3 6.5-.1zm-13 2.5c0 .2-.9.6-2 .9-1.1.3-2 .1-2-.4s.9-.9 2-.9 2 .2 2 .4zm28.7 3.8c-.3.8-.6.5-.6-.6-.1-1.1.2-1.7.5-1.3.3.3.4 1.2.1 1.9zm-39.6 4.1c-1 .9-1.1.8-.5-.6.3-1 .9-1.5 1.2-1.2.3.3 0 1.1-.7 1.8zm10.4.7c.4.6-.6 1-2.2.9-2.5 0-2.6-.1-.8-.9 1.1-.5 2.1-.9 2.2-.9.1-.1.5.3.8.9z"/><path d="M472.8 19.7c.7.3 1.6.2 1.9-.1.4-.3-.2-.6-1.3-.5-1.1 0-1.4.3-.6.6zM272.8 46.7c.7.3 1.6.2 1.9-.1.4-.3-.2-.6-1.3-.5-1.1 0-1.4.3-.6.6zM91 310.1c0 .5.5.7 1 .4.6-.3 1-.8 1-1.1 0-.2-.4-.4-1-.4-.5 0-1 .5-1 1.1zM281 174.7c-.8.3-2.3 1.3-3.3 2.1-1.6 1.4-2 1.4-4.6-.1-4.2-2.5-6.6-2.1-9.5 1.4-3 3.6-3.3 6.2-.8 10.6 2.5 4.8 13.3 16.3 15.1 16.3 2.1-.1 8.5-8.6 11.7-15.4 4.5-10-.1-18-8.6-14.9zm5.3 3.7c2.8 2.2 2 3.1-2.8 3.2-5 .1-5.6-.7-2.3-3 2.7-1.9 2.8-1.9 5.1-.2zm-13.8 1.6c.3.6-.1 1.7-.9 2.6-.9.8-1.6 1.1-1.6.5 0-.7-1-.9-2.5-.5-1.8.4-2.5.2-2.5-.8 0-.8.3-1.8.7-2.1 1-1.1 6.1-.8 6.8.3zM318.3 202.7c-4.9 2.5-7.7 8.9-7 16.2.5 5.7 2.8 14.9 5.2 20.6.7 1.6 1.5 3.9 1.7 4.9.6 3.4 3 4 7.8 1.9 2.5-1.1 6.5-2.8 9-3.9 11.3-4.8 16.4-8.7 19.1-14.9 3.4-7.7 1-14.2-6.2-16.5-3.2-1.1-4.7-1.1-7.3-.2-4.6 1.7-5.3 1.5-6-1.2-.9-3.5-7.1-8.6-10.4-8.5-1.5 0-4.2.8-5.9 1.6zm10.2 4.8c1.6 1.5 2.5 3.6 2.5 5.4 0 2.9-.1 3-3 2-1.7-.6-2.7-1.6-2.3-2.2.4-.6-.2-.8-1.6-.4-1.7.4-2.1.2-1.7-.9.4-1.1 0-1.3-1.8-.8-1.6.4-2.5.1-3-1.1-.3-.9-.2-1.3.4-1 .6.3 1 0 1-.9 0-3.3 6.3-3.4 9.5-.1zm21.3 8.8c1.9 2.3 2.4 6.3.9 7.5-1.1.9-1.9.8-3.7-.8-1.3-1.1-3-2-3.9-2-1.4 0-1.4-.2-.1-1 1.2-.8.9-1-1.2-1-1.4 0-3.4-.3-4.2-.6-1.5-.6-1.5-.8.1-2 2.3-1.7 10.7-1.8 12.1-.1zM403.7 212.5c-.9 2.3 1.1 2.8 2.3.5.8-1.6.8-2-.4-2-.7 0-1.6.7-1.9 1.5zM408.7 217.6c-.4.4-.7 1.4-.7 2.3 0 1.1.3 1.2 1.1.4.6-.6 1-1.6.7-2.3-.2-.6-.7-.8-1.1-.4zM424.6 222.1c-1.1 1-2.6 1.9-3.3 1.9-1.5 0-6.4 2.9-7.5 4.5-1.3 1.8-.9 3.5 1 3.5 1.6.1 1.6.1 0 1.1-3.6 2.1-1.7 4.6 3 4 .6-.1 1.2.3 1.2.9 0 .5-.6 1-1.4 1-2.1 0-3.1 2.1-1.5 3.2 1.1.8 1.1 1.1.1 1.5-1 .4-1 .8-.1 1.9 1.5 1.8 2.4 1.8 4.5-.3 1.7-1.7 1.7-1.6 1.1 1.5-.6 2.8-.3 3.7 1.6 5.3 1.2 1 2.7 1.8 3.3 1.9 1.6 0 2.5-2.8 1.1-3.3-.7-.2-1.2-1.5-1.2-2.9-.1-1.7.3-2.4 1.2-2.1 1.8.7 1.7.2-.9-4.6-2-3.8-2-4.2-.5-5.9.9-1 1.7-2.7 1.7-3.7 0-1.5-.2-1.6-1.7-.4-1.5 1.3-1.6 1.1-.9-1.4.4-1.6.2-2.7-.4-2.7-.5 0-1-.5-1-1.1 0-.5.4-.8.9-.5.5.4 2.1.2 3.4-.3 2-.8 2.4-1.5 2-3.2-.5-1.8-.7-1.9-1.5-.5-1.1 2-2.9 2.1-2.2.1.8-1.9.3-1.8-2 .6zM405.5 223.1c-1.1 1.7.1 2.1 1.5.4.8-.9.8-1.5.2-1.5-.6 0-1.4.5-1.7 1.1z"/><path d="M429.5 229c-.3.5-.2 1 .4 1 .5 0 1.3-.5 1.6-1 .3-.6.2-1-.4-1-.5 0-1.3.4-1.6 1zM467.5 232.1c-.3.4.2.6 1 .5 2.1-.3 2.8-1.3 1-1.3-.9 0-1.8.4-2 .8zM498.2 233.7c.2 1 1.4 2 2.8 2.2 2.5.3 2.5.3.6-1.8-2.3-2.6-3.9-2.7-3.4-.4zM470.5 233.8c-1.8 1.3-1.4 4.2.6 4.2s2.2-.5 1.1-3.2c-.4-1-1.2-1.4-1.7-1zM495.7 237.1c.7.7 1.5 1 1.8.7.3-.3-.2-.9-1.2-1.2-1.4-.6-1.5-.5-.6.5zM409.1 238.4c-1.6 1.9-1.1 2.9.8 1.7.7-.5 1.2-1.4.9-2.1-.3-.9-.8-.7-1.7.4zM471.4 240.2c-1 1.6.2 1.8 2.1.5 1.6-1.2 1.6-1.4.1-1.4-.9 0-1.9.4-2.2.9zM500 241c0 .5.5 1 1 1 .6 0 1-.5 1-1 0-.6-.4-1-1-1-.5 0-1 .4-1 1zM434.9 249.2c-.5 1.5-.9 6.1-.5 5.8.6-.7 1.6-6 1-6-.2 0-.4.1-.5.2zM480 252.2c0 .4.7.8 1.5.8s1.5-.4 1.5-.8c0-.5-.7-.9-1.5-.9s-1.5.4-1.5.9zM497.7 251.6c-.4.4-.7 1.4-.7 2.3 0 1.1.3 1.2 1.1.4.6-.6 1-1.6.7-2.3-.2-.6-.7-.8-1.1-.4zM476 256.2c0 1.9.2 2 1 .8 1.3-1.9 1.3-3 0-3-.5 0-1 1-1 2.2zM479.3 256.4c.1 1.7.9 3.1 1.7 3.3 1 .3 1.1.2.4-.4-.7-.4-1.4-1.9-1.7-3.3-.4-2.2-.5-2.1-.4.4zM481 254.4c0 .2.7.7 1.6 1 .8.3 1.2.2.9-.4-.6-1-2.5-1.4-2.5-.6zM501 255c0 .5.5 1 1 1 .6 0 1-.5 1-1 0-.6-.4-1-1-1-.5 0-1 .4-1 1zM137.6 262.7c-1.1 1.2-.6 2.1 1.5 2.6 1.2.3 1.8 1 1.4 1.6-.9 1.5.4 1.4 2-.2 1.1-1.2.9-1.6-1.5-3-1.5-.9-3-1.4-3.4-1zM496.8 267.7c.7.3 1.6.2 1.9-.1.4-.3-.2-.6-1.3-.5-1.1 0-1.4.3-.6.6zM487.8 270.7c.6.2 1.8.2 2.5 0 .6-.3.1-.5-1.3-.5-1.4 0-1.9.2-1.2.5zM137 273.1c0 .5.5.7 1 .4.6-.3 1 .1 1 .9 0 .9.4 1.6.9 1.6.6 0 .9-.9.8-2-.1-2-3.7-3-3.7-.9zM480.5 273c-.3.5-.1 1 .4 1 .6 0 1.1-.5 1.1-1 0-.6-.2-1-.4-1-.3 0-.8.4-1.1 1zM355.4 284.9c-.2.2-2.3.6-4.6.8-2.4.3-7.3 1.8-11 3.4-3.6 1.6-7.8 2.9-9.2 2.9-1.3 0-2.8.4-3.1 1-.3.5-1.4 1-2.5 1-1 0-2.1.7-2.4 1.6-.4.9-.9 1.4-1.3 1-1.2-1.2-5.7 6.9-7.5 13.8-1.9 7.4-2.4 19.1-.8 21.6.9 1.4 8 2.3 8 .9 0-.3.9-.9 2-1.2 1.1-.3 1.8-.1 1.4.4-.3.5.2.9 1 .9 1 0 1.5-.8 1.3-2.2-.2-2.1.3-2.3 5.8-2.9 12.3-1.3 24.2-5.1 31.1-10.1 5.3-3.8 8.2-9 9.3-16.9.7-5.4 1.3-6.7 4.2-9.1 1.8-1.5 2.7-2.8 2-2.8-.9 0-.6-.7.8-1.9 1.2-1.1 1.8-2.1 1.4-2.4-1-.6-25.3-.4-25.9.2zM342 305c0 .5-.5 1-1.1 1-.5 0-.7-.5-.4-1 .3-.6.8-1 1.1-1 .2 0 .4.4.4 1zM135.5 292c.3.5 1.1 1 1.6 1 .6 0 .7-.5.4-1-.3-.6-1.1-1-1.6-1-.6 0-.7.4-.4 1zM203.6 303.3c.3 1 .9 1.5 1.2 1.2.3-.3 0-1.1-.7-1.8-1-.9-1.1-.8-.5.6zM206 304.9c0 .5.5 1.3 1 1.6.6.3 1 .2 1-.4 0-.5-.4-1.3-1-1.6-.5-.3-1-.2-1 .4zM208.1 323.9c-.1 1-1.1 1.2-4.1.8-3.8-.5-9 1-9 2.5 0 .5-1.5.8-3.2.8-1.8 0-4.1.7-5.1 1.4-1 .8-2.8 1.2-4 .9-1.6-.3-1.8-.2-.8.5s.5 1.2-2.2 2.1c-1.9.7-4.1 1.8-4.7 2.6-.6.7-3.6 2.1-6.6 3.1-6.2 1.9-8 4.1-5.4 6.5.9.8 2.2 1.3 2.8 1.1.7-.2 1.2.1 1.2.6s1.3 1.5 2.9 2.2c1.7.6 4 2.6 5.2 4.4 2.2 3.2 6.7 5.5 14.8 7.6 7.3 1.9 20.7-.3 30.1-5 2.9-1.5 3.9-1.6 5.3-.6.9.7 1.4 1.6 1 1.9-.3.4.3.7 1.5.7s2.2-.4 2.2-.9c0-.8 3.7-2.4 5.3-2.2.4.1.7-.8.7-1.8 0-1.1.4-2.3 1-2.6.6-.3-.1-1.7-1.5-3.3-1.3-1.4-2.7-3.9-3.1-5.5-.7-3.3-10.8-13.7-13.3-13.7-.9 0-2.5-.7-3.5-1.5-1.1-.8-3-1.5-4.2-1.5-1.2 0-2.5-.6-2.7-1.3-.4-.9-.6-.8-.6.2zm.9 15.5c0 .3-.4.8-1 1.1-.5.3-1 .1-1-.4 0-.6.5-1.1 1-1.1.6 0 1 .2 1 .4zM376.6 328.2c-3.5 15.2-3.6 16-2.5 17.9.9 1.7 1.3 1.8 2.7.7 4.4-3.4 6.9-11.2 5.5-16.9-1.1-4.2-4.9-5.4-5.7-1.7z"/><path d="M184 328c0 .5.5 1 1.1 1 .5 0 .7-.5.4-1-.3-.6-.8-1-1.1-1-.2 0-.4.4-.4 1zM358.9 334.7c-1 .2-1.9 1.8-2.2 3.7-.3 1.8-2 5.3-3.7 7.8-2.8 3.9-3 4.9-2 6.7 1.6 3.2 3.9 2.3 7.6-3 5.3-7.2 5.4-16.4.3-15.2zM89.5 336c-.3.5-.1 1 .4 1 .6 0 1.1-.5 1.1-1 0-.6-.2-1-.4-1-.3 0-.8.4-1.1 1zM338.8 341.1c-1 .5-1.8 1.7-1.8 2.6 0 .9-1.3 3.8-3 6.5-4.9 8-3.6 12.2 2.6 8.1 2.8-1.8 7.4-10.1 7.4-13.2 0-4.7-1.8-6.1-5.2-4zM94.5 352c-.3.5.1 1 .9 1 .9 0 1.6-.5 1.6-1 0-.6-.4-1-.9-1-.6 0-1.3.4-1.6 1zM103.5 359c-.4.6-.3 1.6.3 2.2.6.6 1.2.6 1.7-.2.4-.6.3-1.6-.3-2.2-.6-.6-1.2-.6-1.7.2zM220.1 370.6c-1.2 1.5-2.1 3.3-2.1 4 0 .8-.4 1.4-1 1.4-.5 0-1 .7-1 1.5s-.4 1.5-.8 1.5c-1.2 0-3.2 4.7-3.2 7.5 0 2 .5 2.5 2.4 2.5 1.6 0 2.7-.7 3.1-2 .3-1.1 1-2 1.5-2 1.1 0 6-9.9 6-11.9 0-.9-.7-2.4-1.4-3.4-1.3-1.7-1.5-1.6-3.5.9zM301 370c0 .5.5 1 1.1 1 .5 0 .7-.5.4-1-.3-.6-.8-1-1.1-1-.2 0-.4.4-.4 1zM196.8 374.6c-.7.9-2.9 3.3-4.8 5.4-1.9 2.1-5 5.4-6.7 7.4-3.6 3.9-4.2 6.3-1.7 7.3 2.4.9 7.5-2.3 11.1-7 1.8-2.3 4.4-5.6 5.9-7.4 2.1-2.6 2.4-3.5 1.4-5.2-1.3-2.5-3.4-2.7-5.2-.5zM171.8 378.2c-1.5.5-3 1.7-3.3 2.7-.3 1-2.5 3.9-5 6.5-4.6 4.8-5.9 9.1-3 10.2 2 .8 4.6-1.2 9.9-7.7 4.4-5.4 6.7-11.1 5-12.1-.5-.3-2.1-.1-3.6.4zM363.8 384.7c.7.3 1.6.2 1.9-.1.4-.3-.2-.6-1.3-.5-1.1 0-1.4.3-.6.6zM508.5 393.2c-.4 1.3-.8 2.7-.9 3.3-.2 1.5-2.6 3.8-3.3 3.1-.3-.3 0-1.2.7-2.1 1.6-2 .6-1.9-2.5.1-1.9 1.3-2.5 2.5-2.4 5.3l.1 3.6 1.3-3.5c1.3-3.3 1.4-3.4 1.4-.8.1 4.4 3 5.2 3.4.9.1-1.1.4-2.1.8-2.1.3 0 1.6-.9 2.9-2 1.8-1.6 2-2 .7-2-1 0-1.7-.4-1.7-1 0-.5.7-.7 1.5-.4.8.4 1.5.1 1.5-.5s-.5-1.1-1.1-1.1c-.6 0-.9-.7-.5-1.5.3-.8.2-1.5-.3-1.5s-1.2 1-1.6 2.2zM503.7 392.7c-.4.3-.7 1.1-.7 1.7 0 .6.5.5 1.2-.2.6-.6.9-1.4.7-1.7-.3-.3-.9-.2-1.2.2zM95.5 395c.3.5 1 1 1.6 1 .5 0 .9-.5.9-1 0-.6-.7-1-1.6-1-.8 0-1.2.4-.9 1zM496 396.7c0 2 1.6 5 2.3 4.3.3-.3.7-1.6.9-3 .2-1.7-.2-2.6-1.4-2.8-1.2-.2-1.8.3-1.8 1.5zM492.8 397.7c.7.3 1.6.2 1.9-.1.4-.3-.2-.6-1.3-.5-1.1 0-1.4.3-.6.6zM93 399c0 .5.5 1 1 1 .6 0 1-.5 1-1 0-.6-.4-1-1-1-.5 0-1 .4-1 1zM510.3 402.6c-.3.8-.1 2 .6 2.7.8.8 1.1.4 1.1-1.6 0-3-.7-3.5-1.7-1.1zM95.3 403.7c.9.2 2.3.2 3 0 .6-.3-.1-.5-1.8-.5-1.6 0-2.2.2-1.2.5zM494.7 403.7c-3.3.5-2.6 2.3.9 2.3 1.5 0 2.4-.6 2.4-1.5 0-.8-.1-1.4-.2-1.4-.2.1-1.5.4-3.1.6zM504.9 407.7c-2.4.6-3.2 4.5-1.3 6.3 1.4 1.3 1.5 1.2.9-1.3-.4-1.5-.3-2.7.2-2.7s1.8-.7 2.9-1.5c2-1.5.9-1.8-2.7-.8zM112 414.4c0 2.4-.3 5.2-.7 6.1-.6 1.6-.4 1.6 1.5 0 1.1-1 1.8-2.4 1.5-3.1-.4-1 .4-1.4 2.6-1.4 2.6 0 3.1-.4 3.1-2.3 0-1.8-.2-1.9-1.1-.7-.8 1.3-1.2 1.2-2.6-.8-2.6-3.7-4.3-2.8-4.3 2.2zM328.5 411.1c-1.1 1.7-.2 1.8 1.9.3 1.7-1.2 1.7-1.4.4-1.4-.9 0-2 .5-2.3 1.1zM507 412c0 .5.5 1 1 1 .6 0 1-.5 1-1 0-.6-.4-1-1-1-.5 0-1 .4-1 1zM334 412.4c0 .2.7.6 1.5 1 .8.3 1.5.1 1.5-.4 0-.6-.7-1-1.5-1s-1.5.2-1.5.4zM329.5 414c-.8 1.3.5 1.3 2.5 0 1.3-.8 1.3-1-.2-1-.9 0-2 .4-2.3 1zM509 415c-1.4 1.1-2 2-1.5 1.9 1.3 0 5-2.8 4.4-3.3-.2-.3-1.5.4-2.9 1.4zM499.5 416.1c-.4.6-.5 1.3-.2 1.6.7.7 2.7-.6 2.7-1.8 0-1.2-1.7-1.2-2.5.2zM470.5 417c-.3.5-.1 1 .4 1 .6 0 1.1-.5 1.1-1 0-.6-.2-1-.4-1-.3 0-.8.4-1.1 1zM103.5 418c-.3.5.1 1 1 1s1.3-.5 1-1c-.3-.6-.8-1-1-1-.2 0-.7.4-1 1zM503.4 418.5c-.3.8-.3 1.9.1 2.5.3.5-.1 1-.9 1s-1.8-.5-2.1-1c-1-1.7-2.1-1.1-3.4 1.6-1.5 3.3-.7 6 2 6.7 2 .5 2 .5-.1 4.2-1.1 2-1.8 4-1.5 4.5.3.5-1.1.8-3.2.7-3.5-.2-3.8 0-4.1 2.5-.3 2.9-1.2 3.3-7.7 4.1-2 .3-1.5.5 1.7.6 2.6 0 4.9.6 5.2 1.3.5 1 .7 1 1.2 0 .3-.6 1.1-1.2 1.7-1.2.8 0 .7.4-.1 1.2-.7.7-1.2 1.9-1.2 2.7 0 .8-.7 2.3-1.7 3.3-1.5 1.7-1.5 1.8 0 1.8 1 0 1.7-.6 1.8-1.3 0-.6.5.1 1 1.7 1 3.7.4 4.6-1.6 2-.8-1-1.5-1.5-1.5-1.1 0 .5-.8.1-1.7-.9-1.1-1.1-1.8-1.3-2.1-.5-.2.6-1 1.1-1.8 1.1-1.2 0-1.2.4-.2 2 1.1 1.7 1 2.2-.2 3-.8.5-1.7 1-2 1-.7 0-4-7.7-4-9.4 0-3.1-1.8-2.4-2.4.9-.9 4.8-2.1 5.1-2.1.4 0-2.2.5-4.1 1.2-4.3.7-.3 1.3-1.4 1.3-2.4s.5-2.3 1.2-3c1.7-1.7-2.8-1.6-4.8 0-5 4.2-5.4 4.9-3.8 7.3 1 1.6 1.2 2.5.4 3-1.3.8-5.2-.4-6.2-1.8-1-1.6-3.7-1.7-3.1-.1.3.9-.2 1.4-1.5 1.4-1.7 0-2 .5-1.7 3.6.4 4.8 1.5 5.6 1.5 1.1 0-2.1.5-3.7 1-3.7.6 0 1 1.4 1 3 0 1.7 1.1 5.3 2.5 7.9 2.1 4.3 2.2 5 .9 5.5-1.2.5-1.4 1-.5 2 .6.7.8 1.6.4 1.9-.3.4-.1.7.5.7s1.3-1 1.5-2.3c.4-2 .4-2 .6.4 0 1.4.7 3.1 1.4 3.8.8 1 .8 1.2 0 .7-1.2-.6-2.6.9-2.9 3.2-.2.7.7 1.7 1.9 2.1 1.9.7 1.9.8-.8 1.5-2.2.6-2.6.9-1.5 1.6 1.3.8 1.2 1.3-.3 3.9-1.9 3.3-2.2 5.1-.7 5.1.6 0 1-.7 1-1.6 0-.8.4-1.2 1-.9 1 .6-.3 3.6-2.7 6.2-1 1.1-1.4 1-2.2-.4-1-1.7-1.2-1.7-2.4-.2-1.1 1.4-1.4 1.4-2.6.2-1.1-1.3-1.1-1.7.4-3.1 1.6-1.6 1.7-1.6 1 .7-.5 1.6-.4 2.1.4 1.7.6-.4 1.1-1.5 1.1-2.4 0-1.3.5-1.2 2 .8 2.1 2.7 2.7 1.2.9-2.3-.9-1.6-.9-2.2 0-2.5.6-.2 1.1-1 1.1-1.7s.6-1.6 1.3-1.8c.6-.3-.4-.6-2.3-.6-2.6-.1-3.1.2-2 .9 1.4.9 1.3 1.1-1.9 1.4-.8 0-1.6.7-1.9 1.5-.3 1 0 1.2 1.2.8.9-.4 1.6-.3 1.6.2 0 1.3-4.3 2.2-5.4 1.1-.6-.6-1.6-1-2.4-1-.9 0-.6.7.9 2 1.3 1 1.9 1.9 1.3 2-.6 0-1.4-.3-1.8-.8-.4-.4-1.3-.7-1.9-.7-.7-.1-1.1-.6-1-1.3.4-1.5-1.4-1.6-1.9 0-.3.7-1 .8-1.7.4-1.1-.7-1.1-1 0-1.7s1-1.1-.6-2.3c-2.3-1.8-3.5-2-3.5-.6 0 .5.5 1 1 1 .6 0 1 .5 1 1 0 .6-.7.6-1.9-.1-1.1-.7-2.6-.9-3.7-.4-1.8.8-1.8.8-.1 1.2 1.8.5 1.7.6-.4 2.9-1.2 1.3-1.9 2.7-1.6 3.1.4.3.2 1.2-.4 2-.9 1-.5 1.3 1.9 1.3 1.7 0 3.4-.5 3.7-1.1 1.1-1.7-.3-2.3-2.2-.8-1.5 1.1-1.6 1.1-.5-.1.6-.8 1.2-2.2 1.2-3.2 0-1.9 1.6-2.3 3.9-.9.8.5 1.2 1.9.9 3.5-.3 1.5-.1 2.6.6 2.6.6 0 .5.4-.3.9s-2 .7-2.8.4c-1.7-.7-1.7.5.1 2.3 1.9 1.9 4.6 1.8 4.6-.2 0-1 .7-1.4 1.8-1.2.9.2 1.6.9 1.5 1.5-.3 1.4 2.1 1.1 4.1-.6 1.3-1.1 2-1.1 4 .2 2 1.4 6.6 1.6 29.5 1.7h27.2l-.2-20.5c-.1-11.2-.5-20.2-.9-20-.4.2-.7-.9-.6-2.5.1-1.7.5-3 1.1-3 .5 0 .4-.5-.3-1.2-1.5-1.5-1.6-4.8-.2-4.8 1.7 0 .9-9.4-.9-10.7-.9-.6-1.2-1.5-.8-1.9.4-.5 1.2-.2 1.7.6.7 1.1.9.8.8-1-.1-1.4-.7-2.8-1.3-3.2-.7-.5-.7-.8.1-.8.6 0 1.1-1.7 1.2-3.8.1-3.3-.1-3.7-2.4-3.8-1.9-.2-2.4.2-1.9 1.6.4 1.1-.1 2-1.1 2.4-1.4.5-1.5.9-.5 1.9.9.9 1.4.9 2.1-.3.5-.8 1-1 1-.5 0 .6-.5 1.6-1.2 2.3-.9.9-.9 1.2.1 1.2.7 0 .9.5.5 1.2-.5.8-1 .7-1.8-.4-.6-.8-2.2-1.9-3.6-2.3l-2.5-.8 2.5 2.1c1.4 1.1 2.2 2.4 1.8 2.8-1.4 1.4-4.7-4-4.1-6.6.3-1.4.9-2.7 1.3-3 .3-.3.9-1.3 1.3-2.3.7-1.9 3.7-2.3 5.4-.6 1.7 1.7 3.7.1 2.2-1.7-.8-1-.8-1.4 0-1.4 1.7 0 1.3-2.7-.5-3.4-2.7-1-3.6-.7-2.9 1.4.5 1.4.2 2-1 2-1.1 0-1.4-.6-.9-2.5.4-1.6.2-2.5-.6-2.5-.7 0-1-.8-.7-2 .6-2.3-.1-2.7-.9-.5zm-2.4 9c0 .5-.5.3-1-.5s-1-2-1-2.5c0-.6.5-.3 1 .5s1 1.9 1 2.5zm-5 13.9c0 1.7-2.7 2.9-3.5 1.6-.4-.6-.3-1.5 0-2 .9-1.5 3.5-1.2 3.5.4zm3.3 1.1c-.3.9-.8 1.4-1 1.1-.3-.3-.2-.9.2-1.5.9-1.6 1.5-1.3.8.4zm3.7 1.5c0 .5-.4 1-1 1-.5 0-1-.5-1-1 0-.6.5-1 1-1 .6 0 1 .4 1 1zm2.9 6c0 .8-.5.4-1.2-1-.8-1.4-1.1-3.2-.8-4 .4-1.1.7-.8 1.2 1 .4 1.4.7 3.2.8 4zm-7.8.3c-.8.8-1.1.5-1.1-1.1 0-1.2-.5-2.2-1.1-2.2-.5 0-.7-.5-.4-1.1.5-.6 1.3-.2 2.2 1.1 1.1 1.6 1.2 2.5.4 3.3zm2.4-4.3c.3.5.1 1-.4 1-.6 0-1.1-.5-1.1-1 0-.6.2-1 .4-1 .3 0 .8.4 1.1 1zm8.5-.6c0 .3-.4.8-1 1.1-.5.3-1 .1-1-.4 0-.6.5-1.1 1-1.1.6 0 1 .2 1 .4zm-13 4.6c0 .5-.7 1-1.5 1s-1.5-.5-1.5-1c0-.6.7-1 1.5-1s1.5.4 1.5 1zm4.5 5.9c.9 1.9 1.1 3.2.5 3.6-.6.3-1-.4-1.1-1.7 0-2.3 0-2.3-1.1.2-1 2.4-1 2.4-1.8.5-.4-1.1-.4-2.5.1-3.1.5-.6.6-1.4.2-1.7-.3-.4-.1-.7.5-.7s1.8 1.3 2.7 2.9zm-37.5-.1c0 .4 1.7.8 3.8.7 2.7 0 3.6.4 3.4 1.4-.2.8.3 1.8 1 2.2 1.1.7 1.1.9 0 .9-.7 0-1 .4-.7 1 .3.5.1 1-.4 1-.6 0-1.1.7-1.1 1.5 0 2 1 1.9 2.7-.3 1.4-1.6 1.4-1.6.9.2-.4 1.3.2 2.6 2.1 4.2 1.6 1.3 2.3 2.4 1.7 2.4-.5 0-1.9-.9-3.1-1.9-1.9-1.8-2.2-1.8-3.7-.3-1 1-1.6 1.2-1.6.4 0-.7-.7-1.2-1.5-1.2-1.9 0-1.9-.5.1-3.6 1.4-2.1 1.4-2.4.1-1.8-2 .7-3.2-1.3-1.7-3.1.7-.9.8-1.5.2-1.5-1.4 0-2.2 2.4-1.5 4.9.3 1.2.1 2.1-.5 2.1-1.4 0-3.4-6.3-2.6-8.3.6-1.7 2.4-2.4 2.4-.9zm14.9 4.2c.2-.9.6-.6 1.2.9 1.2 3 .6 3.6-2 2.1-1.4-.7-2.1-2.1-2.1-3.9 0-4.1 1.4-4.8 2.1-.9.4 1.8.7 2.6.8 1.8zm10.5-.4c.3.8.2 1.2-.4.9-.6-.3-1-1-1-1.6 0-1.4.7-1.1 1.4.7zm19.1-.5c1.1 1.7.2 1.8-1.9.3-1.7-1.2-1.7-1.4-.4-1.4.9 0 2 .5 2.3 1.1zm-8.5 5.3c0 .3-.4.8-1 1.1-.5.3-1 .1-1-.4 0-.6.5-1.1 1-1.1.6 0 1 .2 1 .4zm5.6 2.3c-.7.7-2.6-.7-2.6-1.9 0-.6.6-.6 1.5.2.9.7 1.3 1.5 1.1 1.7zM477 466c0 .5-.4 1-.9 1-.6 0-1.3-.5-1.6-1-.3-.6.1-1 .9-1 .9 0 1.6.4 1.6 1zm16 .3c0 .7-.9 1.3-2.1 1.3-1.9 0-1.9-.1-.3-1.3 1-.7 1.9-1.3 2.1-1.3.2 0 .3.6.3 1.3zm14 3.7c0 .5-.4 1-1 1-.5 0-1-.5-1-1 0-.6.5-1 1-1 .6 0 1 .4 1 1zm3.5.8c-.3.3-1.1 0-1.8-.7-.9-1-.8-1.1.6-.5 1 .3 1.5.9 1.2 1.2zM473 472c0 .5-.2 1-.4 1-.3 0-.8-.5-1.1-1-.3-.6-.1-1 .4-1 .6 0 1.1.4 1.1 1zm36 1c0 .5-.4 1-1 1-.5 0-1-.5-1-1 0-.6.5-1 1-1 .6 0 1 .4 1 1zm-41 3c0 .5-.2 1-.4 1-.3 0-.8-.5-1.1-1-.3-.6-.1-1 .4-1 .6 0 1.1.4 1.1 1zm4.8 1.5c-.3.3-.9-.2-1.2-1.2-.6-1.4-.5-1.5.5-.6.7.7 1 1.5.7 1.8zm35.7.5c.3.6-.1.7-.9.4-1.8-.7-2.1-1.4-.7-1.4.6 0 1.3.4 1.6 1zm-36.8 4.6c-.3.3-1.2.4-1.9.1-.8-.3-.5-.6.6-.6 1.1-.1 1.7.2 1.3.5zm8 2c-.3.3-1.2.4-1.9.1-.8-.3-.5-.6.6-.6 1.1-.1 1.7.2 1.3.5zM471 487c0 .5-.2 1-.4 1-.3 0-.8-.5-1.1-1-.3-.6-.1-1 .4-1 .6 0 1.1.4 1.1 1zm-22.3 11.5c-.6 1.7-3.7 1.8-3.7.1 0-.9.8-1.4 2-1.3 1.1.1 1.9.6 1.7 1.2zm4.3 1.9c1.4 1.8 1.3 1.9-.4 1.3-1-.4-2.5-.2-3.2.4-2 1.6-1.7-.1.3-2.3.9-1 1.7-1.7 1.7-1.6.1.2.8 1.2 1.6 2.2z"/><path d="M506.5 420c-.3.5.1 1 .9 1 .9 0 1.6-.5 1.6-1 0-.6-.4-1-.9-1-.6 0-1.3.4-1.6 1zM440 422.9c0 2.5.3 2.8 2.5 2.3 2.9-.5 3.2-1.9.8-3.8-2.7-2-3.3-1.7-3.3 1.5zM44.6 421.9c-.4.5.3.7 1.4.4 2.3-.6 2.6-1.3.6-1.3-.8 0-1.7.4-2 .9zM273 421.9c0 .5.5 1.3 1 1.6.6.3 1 .2 1-.4 0-.5-.4-1.3-1-1.6-.5-.3-1-.2-1 .4zM466 424.1c0 1.1.5 1.7 1 1.4.6-.3 1-1.3 1-2.1s-.4-1.4-1-1.4c-.5 0-1 .9-1 2.1zM489.3 422.7c-2 .8-1.5 2.3.7 2.3 1.1 0 2-.7 2-1.5 0-1.5-.6-1.7-2.7-.8zM42.3 424.7c-1.8.6-1.6 2.3.1 2.3 1.7 0 3-1.6 1.9-2.3-.5-.2-1.4-.2-2 0zM270.6 424.7c-1.1 1.1-.7 2 .9 2 .8 0 1.5-.4 1.5-.8 0-1.1-1.6-2-2.4-1.2zM476 426c0 1.3 1.8 2.2 2.4 1.1.3-.5-.1-1.1-.9-1.5-.8-.3-1.5-.1-1.5.4zM162.1 428.7c-1.8 2.5-2 2.6-2.1.8 0-1.7-.2-1.7-1-.5-.8 1.3-1.1 1.3-1.9.1-1.1-1.6-3.4-.5-2.5 1.2.4.7.4.9-.1.5-.4-.4-1.4-.3-2.2.4-1 .8-1.7.8-2.5 0-1.7-1.7-2.7-1.5-2.4.5.4 2.4-2.5 5-5.3 4.8-1.2-.1-2.6.6-3.2 1.7-.5 1-2.3 2.5-3.9 3.3-1.7.9-3 2.2-3 2.9 0 .8-.5 1.6-1.1 1.8-.7.2.4.4 2.3.5 3.2.1 3.5-.1 3.1-2.6-.4-2-.2-2.3.6-1.1 1.8 2.5 1.3 5-.9 5-1.1 0-2 .5-2 1.1 0 .6.7.9 1.5.5.8-.3 1.5-.3 1.5-.1 0 .8-9.5 4.8-10.9 4.6-1.1-.2-1.1.1.2 1.3 2 2 2.4 2 3-.2.4-1.3.5-1.2.6.5.1 3.1-1.4 3.7-4.6 1.6l-2.8-1.8 2 2.7c1.1 1.5 2.3 2.8 2.8 2.8.4 0 .7.5.7 1.2 0 .9-.3.9-1.2 0-1.4-1.4-3.2-1.6-2.4-.4.3.5-.3 1.8-1.2 2.8-2.6 2.7-3.5 5.4-1.6 4.7.8-.3 1.4.1 1.4 1.1 0 1.8-2.1 2.1-3.6.6-.7-.7-.9 0-.6 2.2.4 3.2.3 3.2-1.2 1.3-1.5-2-1.5-2-1.6.2 0 1.2.8 2.7 1.8 3.2.9.6 1.2 1.1.5 1.1-.6 0-1.5-.5-1.8-1-1-1.6-2.5-1.2-1.9.5.4.8.1 1.5-.5 1.5s-1.1.7-1.1 1.5-.9 2.4-1.9 3.4c-1.7 1.7-1.7 2-.4 2.5 2.3.9 2.6.7 1.8-1.1-.5-1.4-.3-1.5.5-.7 1.3 1.3-.3 5.4-2 5.4s-1.1 1.8.8 2.3c1.5.4 1.5.5-.2.6-1.6.1-1.7.3-.5 1.7 1.1 1.4.9 1.9-1.1 3.6-2.5 1.9-2.5 2-.2 1.5 1.4-.3 2.2 0 2.2.9 0 1-1.2 1.4-4 1.4-3.3 0-4 .3-4 2 0 1.8.7 2 6.4 2h6.4l1.3-3.8c.6-2 1.5-4.2 1.9-4.7.4-.6 1.1-2.1 1.5-3.5.9-3 5.2-12.9 6.5-15 1.4-2.3 8.3-13.9 9.7-16.4.7-1.1 1.3-1.7 1.3-1.1 0 .5 1.2-.8 2.7-3 3.5-5.1 10.2-11.3 13.1-12.1 1.2-.3 2.2-1 2.2-1.5 0-1.1 6-4.2 6.7-3.5.4.3 1.2-.2 1.9-1.2 1.1-1.4 1.3-1.4 1.4-.2 0 .9.3 1.1.8.4 1-1.4 8.9-5.4 10.7-5.4.8 0 1.5-.5 1.5-1 0-.6.8-1 1.8-1 1.8 0 4.2-1.8 4.2-3.2 0-.4-1.3-.5-3-.2-1.7.4-3.6.1-4.5-.6-.8-.6-1.8-.9-2.3-.6-.5.3-2.3 0-4.1-.7-2.7-1-3.3-.9-4.1.3-.8 1.2-1.1 1.1-1.6-.8-.8-2.9-1.8-2.8-4.3.5zM140 449.4c0 .3-.4.8-1 1.1-.5.3-1 .1-1-.4 0-.6.5-1.1 1-1.1.6 0 1 .2 1 .4zM125 467c0 .5-.5 1-1.1 1-.5 0-.7-.5-.4-1 .3-.6.8-1 1.1-1 .2 0 .4.4.4 1zm-4.3 9.2c-.3.8-.6.5-.6-.6-.1-1.1.2-1.7.5-1.3.3.3.4 1.2.1 1.9zM117 481c0 .6-.7 1.3-1.5 1.6-.8.4-1.2 1.1-.8 1.7.3.6.1.7-.5.3-.9-.5-.8-1.2.1-2.6 1.3-2.2 2.7-2.6 2.7-1zm3 5.4c0 .3-.4.8-1 1.1-.5.3-1 .1-1-.4 0-.6.5-1.1 1-1.1.6 0 1 .2 1 .4zm-4.9 4.7c-.9 2.2-1 2.2-1 .3-.1-1.1.2-2.4.6-2.7 1.2-1.2 1.4 0 .4 2.4zM445.5 427c-.3.5-.2 1 .4 1 .5 0 1.3-.5 1.6-1 .3-.6.2-1-.4-1-.5 0-1.3.4-1.6 1zM494.2 428c0 1.4.2 1.9.5 1.2.2-.6.2-1.8 0-2.5-.3-.6-.5-.1-.5 1.3zM140.5 429c-.3.5.1 1 1 1s1.3-.5 1-1c-.3-.6-.8-1-1-1-.2 0-.7.4-1 1zM440.4 429.4c-.3.8-1.3 1.2-2.2.9-1.1-.3-1.3-.2-.6.4 1.3.9 2.6 4.8 2.8 7.8.1 1.1.8 2 1.6 2s1.4-.6 1.2-1.4c-.1-.7.2-1.9.7-2.5 1.4-1.7.2-8.6-1.6-8.6-.7 0-1.6.6-1.9 1.4zM504 431c0 1.9.3 2.1 1.2 1.2.9-.9.9-1.5 0-2.4-.9-.9-1.2-.7-1.2 1.2zM33.5 431c.4.6 1.1.8 1.6.5 1.4-.9 1.1-1.5-.7-1.5-.8 0-1.2.5-.9 1zM37 431c0 .5.5 1 1 1 .6 0 1-.5 1-1 0-.6-.4-1-1-1-.5 0-1 .4-1 1zM469 431.5c0 .8.2 1.5.4 1.5s.6-.7 1-1.5c.3-.8.1-1.5-.4-1.5-.6 0-1 .7-1 1.5zM490.8 432.5c.2 1.5 0 2.5-.7 2.5-.6 0-1.1.7-1.1 1.5s.5 1.5 1 1.5c.6 0 1-.5 1-1 0-.6.9-1 2-1 2.5 0 2.5-1.3.3-4-2.3-2.7-3.1-2.5-2.5.5zM497 431c0 .5.5 1 1 1 .6 0 1-.5 1-1 0-.6-.4-1-1-1-.5 0-1 .4-1 1zM139.6 431.9c-.4.5-.2 1.2.3 1.5.5.4 1.2.2 1.5-.3.4-.5.2-1.2-.3-1.5-.5-.4-1.2-.2-1.5.3z"/><path d="M143.1 432.6c0 1.1.3 1.4.6.6.3-.7.2-1.6-.1-1.9-.3-.4-.6.2-.5 1.3zM420.3 431.7c-2.9.4-3.3.8-3.3 3.4 0 2.7-.2 2.9-1.5 1.5-.8-.8-1.5-1.9-1.5-2.5 0-.6-.5-1.1-1.1-1.1-.7 0-.9.9-.5 2.2.3 1.3.6 2.7.6 3.1 0 .5 1.2.7 2.8.5 1.9-.2 2.7-.9 2.7-2.2 0-1.1.6-2.1 1.3-2.4.7-.2 1.2.6 1.2 2.3 0 1.5.4 2.4 1 2 .6-.3 1-1.5 1-2.6 0-1 .7-1.9 1.5-1.9 1.8 0 1.9 1.2.3 2.8-.9.9-.8 1.2.8 1.2 1.1 0 2.5-.5 3.2-1.2.9-.9 1.5-.9 2.4 0 .9.9.4 1.3-2.1 1.8-2.1.5-2.9 1-2.2 1.7 1.7 1.7 9.1-4.7 9.1-7.9 0-.4-.9.3-1.9 1.5-1.9 2.2-2 2.2-3.9.3-2.2-2.2-5.3-3-9.9-2.5zM464 432c-.8.5-1.1 1.2-.8 1.6 1 .9 3.8-.3 3.8-1.6 0-1.2-1-1.3-3 0zM472 432c0 .5.5 1 1.1 1 .5 0 .7-.5.4-1-.3-.6-.8-1-1.1-1-.2 0-.4.4-.4 1zM483 433.5c-1.1 1.3-1.5 1.3-2.1.3-.6-1-1.1-1-2-.1-1 1-.7 1.4 1.2 2.1 3.1 1.2 4.9.5 4.9-1.9 0-2.3-.4-2.4-2-.4zM486.6 433.5c.4.8.8 1.5 1 1.5.2 0 .4-.7.4-1.5s-.4-1.5-1-1.5c-.5 0-.7.7-.4 1.5zM408 435c0 .5.5 1 1.1 1 .5 0 .7-.5.4-1-.3-.6-.8-1-1.1-1-.2 0-.4.4-.4 1zM11.5 435.9c-.3.5.4 1.3 1.6 1.6 2.8.9 3.3.2.9-1.3-1.1-.6-2.1-.8-2.5-.3zM436.4 436.5c-1.7 1.3-1.7 1.4-.2 1.5 1.1 0 1.7.7 1.5 1.7-.1 1 .3 2 .8 2.3 1.1.5 1.5-4.4.5-6-.4-.6-1.4-.4-2.6.5zM472 436.1c0 .5.5.7 1 .4.6-.3 1-.8 1-1.1 0-.2-.4-.4-1-.4-.5 0-1 .5-1 1.1zM456.8 437.7c.7.3 1.6.2 1.9-.1.4-.3-.2-.6-1.3-.5-1.1 0-1.4.3-.6.6zM445 440c0 .5.5 1 1 1 .6 0 1-.5 1-1 0-.6-.4-1-1-1-.5 0-1 .4-1 1z"/><path d="M418.2 441.5c-1.6 1.2-2.7 1.3-4.1.5-2.8-1.4-3.3-1.3-2.2.8 1.2 2.3 7.1 2.8 7.1.6 0-1.5.8-1.7 5-1.5 2.3.1 2.3 0 .5-.8-2.9-1.4-3.8-1.3-6.3.4zM434.6 440.9c-.4.7-.5 1.5-.2 1.8.9.9 1.9-.4 1.4-1.8-.4-1.1-.6-1.1-1.2 0zM479 441c2 1.3 4.7 1.3 5.5 0 .4-.6-.9-1-3.2-1-2.8 0-3.4.3-2.3 1zM452.5 442c-.3.5-.1 1 .4 1 .6 0 1.1-.5 1.1-1 0-.6-.2-1-.4-1-.3 0-.8.4-1.1 1zM441.5 443c.4.6 1.1.8 1.6.5 1.4-.9 1.1-1.5-.7-1.5-.8 0-1.2.5-.9 1zM445 443.9c0 1.1.8 2.7 1.8 3.7 1.6 1.6 1.7 1.6 2 .1.4-2.1 1.1-2.1 3.4 0 1.7 1.5 1.8 1.5 1.3.1-.4-.9-1.3-1.9-2.1-2.2-.9-.3-1.3-1-1-1.5.3-.5-.4-1.1-1.7-1.5-3.4-.9-3.7-.8-3.7 1.3zM462 443c0 .5.5 1 1 1 .6 0 1-.5 1-1 0-.6-.4-1-1-1-.5 0-1 .4-1 1zM437.6 444.9c-.3.5.1 1.1.9 1.5.8.3 1.5.1 1.5-.4 0-1.3-1.8-2.2-2.4-1.1zM418 447c0 .5.4 1 .9 1 .6 0 1.3-.5 1.6-1 .3-.6-.1-1-.9-1-.9 0-1.6.4-1.6 1zM424.4 447.7c-.3 1-1.2 3-2 4.5-1.6 3-1.9 6.3-.3 3.5.5-.9 1.9-1.7 2.9-1.7 2.2 0 2.3-.4 1.1-3.5-.5-1.1-.4-2.5.1-3.3.7-.8.7-1.2-.1-1.2-.6 0-1.4.8-1.7 1.7zM464 447c0 .5.5 1 1 1 .6 0 1-.5 1-1 0-.6-.4-1-1-1-.5 0-1 .4-1 1zM432.9 448.6c-1 1.3-1 1.7.1 2.4 1.7 1 3 .4 3-1.5 0-2.2-1.6-2.6-3.1-.9zM480 448.7c.1 2.4 7.1 5.8 8.2 4 1.4-2.3.8-4.5-1.4-5.1-4.3-1.1-6.8-.7-6.8 1.1zM413.4 453.8c.1 5.3 1.9 7 2.1 2 .1-1.5-.2-2.5-.6-2.2-.4.2-1-.8-1.2-2.3-.3-1.6-.4-.4-.3 2.5zM400 453.2c0 4 1.2 6.8 2.7 6.8 1.3 0 1.3-.3.3-1.5s-1-1.5.4-1.5c.9 0 1.6.4 1.6 1 0 .5.8 1.4 1.8 1.9 1.6.8 1.8.6 1.6-1.2-.1-1.2-.3-2.8-.3-3.5-.1-.6-1.2-1.2-2.5-1.2s-2.6-.7-3-1.5c-.8-2.3-2.6-1.8-2.6.7zM397.3 457.5c0 2.2.2 3 .4 1.7.2-1.2.2-3 0-4-.3-.9-.5.1-.4 2.3z"/><path d="M410.6 458.8l.3 4.9-5.4-.5c-4-.3-5.5-.1-5.5.8 0 .8.9 1.1 2.5.8 2-.4 2.3-.3 1.4.8-.9 1.1-.6 1.4 1.5 1.4 1.4 0 2.6-.6 2.6-1.3.1-.7.6-.5 1.4.5 1.8 2.5 2.6 2.2 2.6-.7 0-2.5 2.3-3.5 3.5-1.5.9 1.5 4.1 1.2 5.5-.5 1-1.3.9-1.5-.9-1.5-1.1 0-2.1-.6-2.1-1.3 0-.8-.3-.8-.8-.2-.4.6-1.7 1.2-2.9 1.2-2 .2-2.3-.3-2.3-3.2 0-1.9-.4-3.6-.9-3.9-.5-.3-.7 1.6-.5 4.2zM439.6 455.3c.5 1.3.2 1.6-1.2 1.1-1.4-.4-1.2 0 .6 1.5 2.9 2.4 4.4 2.2 4.7-.5.2-1.2 0-1.4-.4-.5-.4 1.1-1 .8-2.4-1-1.2-1.5-1.7-1.8-1.3-.6zM449.2 456c0 1.4.2 1.9.5 1.2.2-.6.2-1.8 0-2.5-.3-.6-.5-.1-.5 1.3zM452 459.1c0 1.8.3 2.9.7 2.5 1-1 1.1-4.6.1-5.2-.4-.3-.8.9-.8 2.7zM391.7 458.7c-.4.3-.7 1.1-.7 1.7 0 .6.5.5 1.2-.2.6-.6.9-1.4.7-1.7-.3-.3-.9-.2-1.2.2zM431.3 459.9c-1.4 2.2-.8 3.1 2 3.1 1 0 1.7.5 1.4 1.2-.2.7-1.6 1.3-3 1.3-3-.1-3.6 1-1.1 1.9 1 .4 1.3 1.3.9 2.6-.5 1.5-.3 1.8.9 1.4.8-.3 1.2-1.1 1-1.9-.3-.7.6-2.1 1.9-3.2l2.4-1.9-2.6-3.1c-2.5-3-2.7-3.1-3.8-1.4zM446.2 460c0 1.4.2 1.9.5 1.2.2-.6.2-1.8 0-2.5-.3-.6-.5-.1-.5 1.3zM.2 469.5l.1 7.6 2.6-.6c1.4-.3 3.3-1.5 4.3-2.5.9-1.1 2.1-2 2.8-2 .6 0 .8-.5.4-1.1-.3-.6-1.9-.9-3.5-.7-1.5.3-2.6.1-2.3-.3.2-.4-.7-2.4-2-4.4l-2.5-3.6.1 7.6zM393 463c0 .5.5 1 1 1 .6 0 1-.5 1-1 0-.6-.4-1-1-1-.5 0-1 .4-1 1zM424 463.9c0 .5.5 1.3 1 1.6.6.3 1 .2 1-.4 0-.5-.4-1.3-1-1.6-.5-.3-1-.2-1 .4zM450.5 464c.3.5 1.5 1 2.6 1 1 0 1.9-.5 1.9-1 0-.6-1.2-1-2.6-1-1.4 0-2.3.4-1.9 1zM8.7 465.9c.5 1.9 5.3 3.6 5.3 2 0-.5-.6-.9-1.4-.9-.8 0-1.6-.7-2-1.5-.8-2.2-2.5-1.8-1.9.4zM387.4 465.5c2.1 1.6 1.3 3.5-1.5 3.5-1 0-1.9.4-1.9 1 0 .5.6.8 1.3.6.6-.3 2.4-.7 4-1 2.8-.7 3.8-3.6 1.2-3.6-.8 0-1.5-.5-1.5-1 0-.6-.8-1-1.7-1-1.7.1-1.7.2.1 1.5z"/><path d="M413.4 465.5c-.3.8-.3 1.9.1 2.5.3.5-.1 1-.9 1-.9 0-1.6.4-1.6.9s1 .8 2.3.7c1.9-.1 2.2-.6 1.9-3.3-.5-3.6-1-4.1-1.8-1.8zM379 466c0 .5.4 1 .9 1 .6 0 1.3-.5 1.6-1 .3-.6-.1-1-.9-1-.9 0-1.6.4-1.6 1zM394.2 467.2c-1.6 1.6-1.5 2.8.2 2.8 1.6 0 2.9-2.7 1.7-3.4-.4-.3-1.3 0-1.9.6zM403.3 469.2c-.2.5 1 .8 2.6.8 1.7 0 3.1-.3 3.1-.8 0-.4-1.2-.7-2.6-.7-1.4 0-2.8.3-3.1.7z"/><path d="M396.7 470.4c-.5 1.3-1.2 1.4-3.3.6-2.2-.9-2.5-.8-2.1.5.5 1.2.3 1.3-1.3.3-1.5-1-2.3-.9-3.9.6-1.8 1.7-1.9 1.7-2.6-.3-.4-1.2-1.5-2.1-2.6-2.1s-1.8.4-1.4.9c.3.5-.5 1.3-1.7 1.7-2.1.7-2 .9 1.2 1.4 2.5.4 3.5 1 3.4 2.2-.1.9.5 1.9 1.3 2.3 1.1.4 1.3.1.9-1.1-.3-.8.1-2.2.9-3.1 1.2-1.2 2.2-1.3 4.5-.4 2.4.8 3 .7 3-.5 0-1.9 1.7-1.8 2.9.3 1 1.7 1 1.7 1.1 0 0-.9.5-1.7 1-1.7.6 0 1 .7 1 1.5s.7 1.5 1.5 1.5 1.5.4 1.5 1c0 .5-.5 1-1.2 1-.6 0-.9.3-.5.6.3.3 1.3.2 2.3-.4 1.5-.9 1.5-1.1-.4-3l-2.1-2.1 2.7-.4c2.6-.4 2.6-.4-.3-.6-1.7 0-3.6-.6-4.2-1.2-.7-.7-1.2-.6-1.6.5zM424.1 470.6c0 1.1.3 1.4.6.6.3-.7.2-1.6-.1-1.9-.3-.4-.6.2-.5 1.3zM427.5 470.1c-1.1 1.7.1 2.1 1.5.4.8-.9.8-1.5.2-1.5-.6 0-1.4.5-1.7 1.1zM448.9 469.9c.8.5 1.1 1.7.6 3-.6 1.9-.2 2.1 2.9 2.1 2 0 3.6-.5 3.6-1 0-.6-.9-1-2-1s-2-.5-2-1.1c0-.6 1.4-.9 3.3-.7 1.9.2 3.1.8 3 1.5-.2.7.2 1.3.7 1.3 1.1 0 1.4-3.9.3-4.1-4-.6-11.4-.6-10.4 0zM412.6 473.6c-.5 1.4-.4 1.5.9.4 1.7-1.4 1.9-2 .6-2-.5 0-1.2.7-1.5 1.6zM113.1 474.6c0 1.1.3 1.4.6.6.3-.7.2-1.6-.1-1.9-.3-.4-.6.2-.5 1.3zM22.5 475c.3.5.8 1 1.1 1 .2 0 .4-.5.4-1 0-.6-.5-1-1.1-1-.5 0-.7.4-.4 1zM419 475.1c0 .6-.6.9-1.3.6-.8-.3-1.3.3-1.3 1.4 0 1.6.3 1.7 2 .5 2.3-1.5 3.3-3.6 1.7-3.6-.6 0-1.1.5-1.1 1.1zM446.3 475.1c-1.7 1.7-1.6 2.9.2 2.9.8 0 1.5.7 1.5 1.5s-.4 1.5-1 1.5c-.5 0-1 .7-1 1.5s.5 1.5 1 1.5c.6 0 1-.5 1-1 0-.6 1.2-1 2.8-1l2.7-.1-2.3-1.2c-1.2-.7-1.9-1.6-1.6-2 .4-.4.2-.7-.4-.7-.6 0-1.2-.9-1.4-2.1-.2-1.6-.5-1.8-1.5-.8zM406.5 476c-.3.5-.2 1 .4 1 .5 0 1.3-.5 1.6-1 .3-.6.2-1-.4-1-.5 0-1.3.4-1.6 1zM6 476.6c0 1.6 2.7 3 4.5 2.3 1.7-.6 1.7-.8.3-.8-1-.1-1.8-.6-1.8-1.1 0-.6-.7-1-1.5-1s-1.5.3-1.5.6z"/><path d="M386.5 478.1c-.4 1.1-.4 2.3-.1 2.6.3.4.6-.1.6-1 0-1 .5-1.7 1-1.7.6 0 1 .5 1 1.2 0 .6.2.9.5.6.7-.7-.5-3.8-1.5-3.8-.5 0-1.2.9-1.5 2.1zM439.1 476.5c-.1 1.9 1.4 3.2 3.1 2.6 1.3-.4 1.5-1 .8-2.1-.8-1.2-1.1-1.3-1.9-.1-.7 1.1-.9 1.1-1.4 0-.3-.8-.6-1-.6-.4zM376 479.2c0 1.2.1 1.9.3 1.7.1-.2.9-1.2 1.6-2.2 1.2-1.4 1.1-1.7-.3-1.7-1 0-1.6.8-1.6 2.2zM421.5 478c-.3.6.1.7.9.4 1.8-.7 2.1-1.4.7-1.4-.6 0-1.3.4-1.6 1zM452.6 478.1c.3.6 1.7.8 3 .5 2.5-.7 2.5-.7.9 2.5-.9 1.7-1.4 3.3-1.1 3.7.3.3.6-.1.6-.9 0-1.1.2-1.1 1 .1.7 1.2.3 1.6-1.8 2.2-2.3.5-2.1.6 1 .5 2.4-.1 3.4-.5 2.8-1.1-.6-.6-.6-1.6 0-2.7.7-1.1.7-2 0-2.4-.5-.3-.7-1.2-.3-2 .4-1.2-.3-1.5-3.2-1.5-2.3 0-3.4.4-2.9 1.1zM433.8 481c.2 1.6.8 3 1.1 3 .4 0 .8-1.4.8-3 0-1.7-.6-3-1.2-3-.7 0-1 1.1-.7 3zM0 484.1v5l3.1-1.8c2.9-1.7 3.1-1.7 4.4 0 1.1 1.6 1.3 1.6 1.9.2.3-.9.2-1.3-.4-1-.6.3-1 .1-1-.4 0-.6-1-1.1-2.2-1.1-1.3 0-3-.5-3.8-1-1.3-.9-1.2-1.2.4-2.1 1.5-.9 1.6-1.3.5-2-2.5-1.6-2.9-1-2.9 4.2zM400.8 479.7c.7.3 1.6.2 1.9-.1.4-.3-.2-.6-1.3-.5-1.1 0-1.4.3-.6.6zM403.7 481.2c-.7 2.7-.5 3 1.7 2.2 1.9-.7 2.2-4.4.2-4.4-.7 0-1.6 1-1.9 2.2zM423.5 481c-.3.5.1 1 1 1s1.3-.5 1-1c-.3-.6-.8-1-1-1-.2 0-.7.4-1 1zM8.7 482.6c.3.8 1.1 1.4 1.9 1.4 2.1 0 1.7-1.7-.5-2.3-1.4-.3-1.8-.1-1.4.9zM382 485.9c0 2.2.6 4.4 1.5 5.1 1.2 1 1.5.9 1.5-.5 0-1 .8-2.7 1.8-3.8.9-1.1 1.1-1.7.5-1.3-.9.5-1.3 0-1.3-1.3 0-1.4-.6-2.1-2-2.1-1.7 0-2 .7-2 3.9zm2.7-.7c-.3.8-.6.5-.6-.6-.1-1.1.2-1.7.5-1.3.3.3.4 1.2.1 1.9zM438.6 482.8c-.2.4-.1 1.4.5 2.2.7 1.2.9 1 .9-.8 0-2.3-.5-2.8-1.4-1.4zM389.8 484.7c-.3 1.3-.2 2.6.3 2.9.5.3.9 1.5 1 2.7 0 1.2.3 1.7.5 1.1.2-.6.1-2.8-.4-5-.7-3.3-.9-3.5-1.4-1.7zM402.5 486c.3.5.8 1 1.1 1 .2 0 .4-.5.4-1 0-.6-.5-1-1.1-1-.5 0-.7.4-.4 1zM408.1 486.1c1.8 1.1 3.9 1.1 3.9 0 0-.5-1.2-.9-2.6-.9-1.8 0-2.2.3-1.3.9zM367 487.9c-.8 1-2.8 2.6-4.4 3.6-1.9 1.3-2.4 2-1.5 2.3.8.3 2.2 1.1 3.1 2 1 .8 2.4 1.2 3.3.8.9-.3 1.8.1 2.2.9.5 1.4.7 1.3 1.8-.1.6-.9 1.7-1.4 2.3-1 .6.3 1.3.2 1.7-.4.3-.5-.2-1.1-1.2-1.1-7.2-.6-8.5-.8-9-1.3-.6-.5 3-1 5-.7.4 0 .7-.4.7-.9 0-.6-.4-1-.9-1s-1.1-1.1-1.3-2.5c-.3-2.3-.4-2.4-1.8-.6zM397 487c0 .5.5 1 1 1 .6 0 1-.5 1-1 0-.6-.4-1-1-1-.5 0-1 .4-1 1zM421.8 486.7c.7.3 1.6.2 1.9-.1.4-.3-.2-.6-1.3-.5-1.1 0-1.4.3-.6.6zM433.2 487.3c1.8 1.9 4.8 2.3 4.8.7 0-.6-.6-1-1.4-1-.8 0-2.3-.3-3.3-.7-1.7-.6-1.7-.6-.1 1zM444.3 486.7c-1.5.6-.1 3.8 2 4.6 1 .4 1.2-.3.9-2.4-.4-2.9-.7-3.1-2.9-2.2zM11 489c0 .5.5 1 1 1 .6 0 1-.5 1-1 0-.6-.4-1-1-1-.5 0-1 .4-1 1zM399.5 489.1c-.4.6-.5 1.2-.2 1.5.2.3.7-.2 1-1.1.7-1.7.1-2-.8-.4zM403.1 489.6c-1.8 2.1-.6 3 1.4 1.1.8-.9 1.5-1.8 1.5-2.1 0-1.1-1.5-.5-2.9 1zM0 498.5v8.5h4.6c4.5 0 4.5-.1 4.2-3-.2-2 .4-3.4 1.7-4.5 1.8-1.5 1.8-1.6.2-1.1-1 .3-2.3.6-2.8.6s-.9.7-.9 1.5c0 .9-.9 1.5-2.2 1.5-2 0-2.3-.5-2.3-4.4 0-2.6.4-4.2 1-3.8 1.6 1 5.5 1.1 5.5.1 0-.5-.3-.8-.7-.8-2.5.4-4.3-.3-4.3-1.6 0-.8-.9-1.5-2-1.5-1.8 0-2 .7-2 8.5zM9 491.5c.7.8 1.7 1.5 2.2 1.5.5 0 .3-.7-.6-1.5-.8-.8-1.8-1.5-2.2-1.5-.3 0-.1.7.6 1.5zM408.2 491.7c1.5 1.8 1.2 5.2-.7 6.8-1 .8-.9 1.5.1 3.5.9 1.5 1.4 1.9 1.5 1 0-.8.7-.2 1.4 1.5 1.4 2.9 1.4 2.9 1.5.5.1-2.4.1-2.4 1.5-.6 1.4 1.9 1.5 1.9 1.5-.8 0-2-.4-2.6-1.7-2.4-1.2.2-1.8-.3-1.8-1.7 0-1.2.6-1.9 1.4-1.7 2.1.4 5.2-.8 4.6-1.9-.4-.5-1.9-.9-3.5-.9-1.9 0-2.8-.4-2.5-1.3.3-.6-.7-1.7-2.1-2.4-2.3-1.1-2.4-1-1.2.4zM425.5 493c-.3.5-.1 1 .4 1 .6 0 1.1-.5 1.1-1 0-.6-.2-1-.4-1-.3 0-.8.4-1.1 1zM378 495.5c-.7.9-.8 1.5-.2 1.5.5 0 1.2-.7 1.6-1.5.3-.8.4-1.5.2-1.5s-.9.7-1.6 1.5zM387 496.5c0 1.6 1.6 2 2.4.6.3-.5-.1-1.1-.9-1.5-.9-.3-1.5 0-1.5.9zM392 496c0 .5.5 1 1 1 .6 0 1-.5 1-1 0-.6-.4-1-1-1-.5 0-1 .4-1 1zM396 496.1c0 .5.5.7 1 .4.6-.3 1-.8 1-1.1 0-.2-.4-.4-1-.4-.5 0-1 .5-1 1.1zM354 498c0 .5.7 1 1.5 1s1.5-.5 1.5-1c0-.6-.7-1-1.5-1s-1.5.4-1.5 1zM359 498c0 .5.5 1 1 1 .6 0 1-.5 1-1 0-.6-.4-1-1-1-.5 0-1 .4-1 1zM383 499c-.8.5-1.1 1.2-.7 1.6.4.4 1.5 0 2.4-.9 1.8-1.8.8-2.3-1.7-.7zM393 499.1c0 .5.5.7 1 .4.6-.3 1-.8 1-1.1 0-.2-.4-.4-1-.4-.5 0-1 .5-1 1.1zM368 501c0 .6-1.1.8-2.5.4-4.2-1.1-7.5.3-7.5 3.1 0 2.4.3 2.5 5.4 2.5 3.4 0 5.6-.5 5.9-1.3.4-.9.6-.9.6 0 .1 2 2.1 1.5 2.1-.5.1-1.5.2-1.5 1.5.2 1.1 1.4 1.5 1.6 1.5.5 0-1.2.2-1.2 1 .1.7 1.1 1 .7 1-1.9 0-3.2-.1-3.3-3-2.8-1.6.4-3.2.2-3.5-.3-.8-1.3-2.5-1.3-2.5 0zm0 4c0 1.3-1.1 1.3-3 0-1.2-.8-1.1-1 .8-1 1.2 0 2.2.4 2.2 1zM387 502l-2.5 2h2.8c1.6 0 2.6-.4 2.2-1-.3-.6.1-1 .9-1 1 0 1.6 1 1.7 2.7.2 2.8.2 2.8.6.3.3-1.4 1-2.9 1.7-3.3.7-.6.5-.7-.6-.3-1 .3-2 .1-2.3-.4-.9-1.4-1.7-1.2-4.5 1z"/><path d="M416 501.9c0 2.6 1 5.1 2.1 5.1 1.5 0 1-5.7-.6-6.4-1-.3-1.5.1-1.5 1.3zM422.7 501.7c-.9.9-.9 2.5.1 2 .4-.3 1.6-.1 2.7.4 1.7.6 1.7.8.3.8-1 .1-1.8.5-1.8 1.1 0 1.2 2.3 1.3 3.4.2.4-.4 1.5-.7 2.4-.8 1-.1 2.9-.2 4.5-.3 4.5-.2 3-2.1-1.7-2.1-2.5 0-4.8-.5-5.1-1-.7-1.1-3.8-1.3-4.8-.3zM382.2 504.5c0 1.6.2 2.2.5 1.2.2-.9.2-2.3 0-3-.3-.6-.5.1-.5 1.8zM398 502.9c0 .6.5 1.3 1 1.6.6.3 1-.1 1-.9 0-.9-.4-1.6-1-1.6-.5 0-1 .4-1 .9zM396 506c0 .5.5 1 1 1 .6 0 1-.5 1-1 0-.6-.4-1-1-1-.5 0-1 .4-1 1z"/></svg>